<?xml version="1.0" encoding="UTF-8" standalone="no"?>
<svg
   xmlns:dc="http://purl.org/dc/elements/1.1/"
   xmlns:cc="http://creativecommons.org/ns#"
   xmlns:rdf="http://www.w3.org/1999/02/22-rdf-syntax-ns#"
   xmlns:svg="http://www.w3.org/2000/svg"
   xmlns="http://www.w3.org/2000/svg"
   id="svg38"
   viewBox="0 0 149.13835 162.02599"
   version="1.1"
   height="162.02599mm"
   width="149.13835mm">
  <defs
     id="defs12">
    <linearGradient
       gradientUnits="userSpaceOnUse"
       gradientTransform="matrix(0.3516,0,0,0.3516,21.364,55.632)"
       y2="260.04001"
       y1="260.04001"
       x2="442.64999"
       x1="71.694"
       id="linearGradient923">
      <stop
         id="stop2"
         offset="0"
         stop-color="#1aedff" />
      <stop
         id="stop4"
         offset="1"
         stop-color="#4055b2" />
    </linearGradient>
    <linearGradient
       gradientUnits="userSpaceOnUse"
       gradientTransform="matrix(0.39088,0,0,0.39088,-20.172,43.855)"
       y2="544.45001"
       y1="544.45001"
       x2="465.23999"
       x1="112.23"
       id="linearGradient931">
      <stop
         id="stop7"
         offset="0"
         stop-color="#6a89fc" />
      <stop
         id="stop9"
         offset="1"
         stop-color="#fa9ec1" />
    </linearGradient>
  </defs>
  <metadata
     id="metadata14">
    <rdf:RDF>
      <cc:Work
         rdf:about="">
        <dc:format>image/svg+xml</dc:format>
        <dc:type
           rdf:resource="http://purl.org/dc/dcmitype/StillImage" />
        <dc:title></dc:title>
      </cc:Work>
    </rdf:RDF>
  </metadata>
  <g
     id="g36"
     transform="translate(-24.308149,-116.9861)">
    <g
       id="text26"
       style="font-size:14.06400013px;line-height:1.25;font-family:sans-serif;letter-spacing:0px;word-spacing:0px;fill:url(#linearGradient923);stroke-width:0.35159999"
       transform="scale(0.96973,1.0312)"
       aria-label="NA">
      <path
         id="path4573"
         style="fill:url(#linearGradient923)"
         d="m 96.450847,113.54033 q 3.094047,0 4.969223,2.0627 1.96894,1.96894 1.96894,5.15674 v 52.5988 q 0,3.28157 -1.96894,5.34427 -1.875176,1.96894 -4.969223,1.96894 -3.375324,0 -5.438022,-2.43774 L 59.603559,138.01143 v 35.34714 q 0,3.28157 -1.87518,5.34427 -1.781421,1.96894 -4.875468,1.96894 -3.094047,0 -4.969227,-1.96894 -1.87518,-2.0627 -1.87518,-5.34427 v -52.5988 q 0,-3.1878 1.87518,-5.15674 1.968939,-2.0627 5.062986,-2.0627 3.469083,0 5.344263,2.43773 l 31.409266,39.94134 v -35.15963 q 0,-3.1878 1.87518,-5.15674 1.87518,-2.0627 4.875468,-2.0627 z" />
      <path
         id="path4575"
         style="fill:url(#linearGradient923)"
         d="m 178.11484,171.20212 q 0.75007,1.68766 0.75007,3.00029 0,2.62525 -2.15646,4.50043 -2.0627,1.78142 -4.78171,1.78142 -1.78142,0 -3.37532,-0.93759 -1.5939,-1.03135 -2.43774,-3.00029 l -4.96922,-11.06356 h -31.7843 l -4.96923,11.06356 q -0.84383,1.96894 -2.43774,3.00029 -1.50014,0.93759 -3.37532,0.93759 -2.71901,0 -4.87547,-1.78142 -2.15646,-1.87518 -2.15646,-4.50043 0,-1.31263 0.75008,-3.00029 l 25.31493,-53.16136 q 1.03135,-2.25021 3.09404,-3.37532 2.0627,-1.21887 4.40668,-1.21887 2.43773,0 4.50043,1.21887 2.0627,1.21887 3.18781,3.37532 z m -43.78546,-16.78286 h 21.84585 l -10.87604,-24.37735 z" />
    </g>
    <g
       id="text32"
       style="font-weight:bold;font-size:104.23000336px;line-height:1.25;font-family:Nunito;letter-spacing:0px;word-spacing:0px;fill:url(#linearGradient931);stroke-width:0.39087999"
       transform="scale(1.0537,0.94907)"
       aria-label="ME">
      <path
         id="path4578"
         style="font-weight:800;font-family:Nunito;fill:url(#linearGradient931);stroke-width:0.39087999"
         d="m 88.108848,219.35604 q 3.43959,0 5.52419,2.29306 2.188831,2.18883 2.188831,5.73265 v 59.20264 q 0,3.43959 -1.980371,5.41996 -1.98037,1.98037 -5.2115,1.98037 -3.1269,0 -5.10727,-1.98037 -1.98037,-1.98037 -1.98037,-5.41996 V 249.7912 l -14.80066,27.82941 q -1.45922,2.70998 -3.231131,3.96074 -1.66768,1.25076 -4.06497,1.25076 -2.29306,0 -4.06497,-1.25076 -1.77191,-1.25076 -3.23113,-3.96074 l -14.80066,-27.30826 v 36.27204 q 0,3.33536 -1.98037,5.41996 -1.98037,1.98037 -5.211501,1.98037 -3.1269,0 -5.10727,-1.98037 -1.98037,-1.98037 -1.98037,-5.41996 v -59.20264 q 0,-3.54382 2.0846,-5.73265 2.18883,-2.29306 5.62842,-2.29306 5.003041,0 7.608791,5.31573 l 21.15869,40.12855 21.054461,-40.12855 q 2.81421,-5.31573 7.50456,-5.31573 z" />
      <path
         id="path4580"
         style="font-weight:800;font-family:Nunito;fill:url(#linearGradient931);stroke-width:0.39087999"
         d="m 118.23122,293.35934 q -3.64805,0 -5.62842,-1.98037 -1.98037,-1.98037 -1.98037,-5.62842 v -58.26457 q 0,-3.64805 1.98037,-5.62842 1.98037,-1.98037 5.62842,-1.98037 h 36.89742 q 7.71302,0 7.71302,6.2538 0,6.35803 -7.71302,6.35803 h -28.66325 v 17.19795 h 26.57865 q 7.71302,0 7.71302,6.35803 0,6.2538 -7.71302,6.2538 h -26.57865 v 18.44871 h 28.66325 q 7.71302,0 7.71302,6.35803 0,6.2538 -7.71302,6.2538 z" />
    </g>
    <circle
       style="fill:#4054b2;stroke:#545454;stroke-width:0.22988001;stroke-dasharray:0.22987816, 0.22987816"
       id="circle34"
       r="6.9664001"
       cy="179.94"
       cx="32.071999" />
  </g>
</svg>
