<svg xmlns="http://www.w3.org/2000/svg" xmlns:xlink="http://www.w3.org/1999/xlink" viewBox="0 0 1140 390.01"><defs><style>.cls-1{fill:#0069a5;}.cls-2{fill:#192a6b;}.cls-3{fill:#fff;}.cls-4{fill:url(#Dégradé_sans_nom_3);}</style><linearGradient id="Dégradé_sans_nom_3" x1="389.3" y1="-1.27" x2="4.93" y2="383.17" gradientUnits="userSpaceOnUse"><stop offset="0.05" stop-color="#42b8eb"/><stop offset="0.1" stop-color="#3eaade"/><stop offset="0.32" stop-color="#2e73ad"/><stop offset="0.51" stop-color="#234b89"/><stop offset="0.66" stop-color="#1c3373"/><stop offset="0.75" stop-color="#192a6b"/></linearGradient></defs><title>Fichier 1</title><g id="Calque_2" data-name="Calque 2"><g id="Calque_1-2" data-name="Calque 1"><path class="cls-1" d="M976.66,308.4H962.79a.6.6,0,0,0-.59.61v78.6a.59.59,0,0,0,.59.59h13.88a.59.59,0,0,0,.59-.59V309A.61.61,0,0,0,976.66,308.4Z"/><path class="cls-1" d="M576.66,306.72a41.59,41.59,0,1,0,0,83.17c23.45,0,41.82-18.27,41.82-41.59S600.11,306.72,576.66,306.72Zm26.51,41.59c0,15.55-11.64,27.73-26.51,27.73s-26.53-12.18-26.53-27.73,11.65-27.73,26.53-27.73S603.17,332.75,603.17,348.3Z"/><path class="cls-1" d="M668.53,308.4h-35.2a.46.46,0,0,0-.45.47v78.88a.45.45,0,0,0,.45.45H647.5a.45.45,0,0,0,.45-.45v-22h18.26c20.86,0,34.33-11.53,34.33-29.37C700.55,319.37,688,308.4,668.53,308.4Zm-.61,43.93H648V321.91h20c10.65,0,17.81,5.8,17.81,14.43C685.72,345.9,678.57,352.32,667.92,352.32Z"/><path class="cls-1" d="M492.19,308.4H457a.47.47,0,0,0-.45.47v78.88a.45.45,0,0,0,.45.45h14.17a.45.45,0,0,0,.45-.45v-22h18.27c20.86,0,34.33-11.53,34.33-29.37C524.21,319.37,511.64,308.4,492.19,308.4Zm-.61,43.93h-20V321.91h20c10.65,0,17.81,5.8,17.81,14.43C509.39,345.9,502.23,352.32,491.58,352.32Z"/><path class="cls-1" d="M786.2,308.4H772.14a.46.46,0,0,0-.45.47v43.31c0,14.34-8.47,24-21.07,24s-20.82-9.63-20.82-24V308.86a.47.47,0,0,0-.45-.47H715.29a.47.47,0,0,0-.45.47v43.2c0,23.4,13.71,37.94,35.78,37.94,22.22,0,36-14.54,36-37.94v-43.2A.47.47,0,0,0,786.2,308.4Z"/><path class="cls-1" d="M854.65,375.06H818.81V308.87a.47.47,0,0,0-.45-.47H804.19a.46.46,0,0,0-.45.47v75a4.3,4.3,0,0,0,4.27,4.3h41.51a3.12,3.12,0,0,0,2.84-1.9l3.78-9a1.6,1.6,0,0,0-1.48-2.2Z"/><path class="cls-1" d="M914.27,308.21a.45.45,0,0,0-.41-.27H899.61a.45.45,0,0,0-.41.27l-34,79.35a.45.45,0,0,0,.41.63h14.94a.45.45,0,0,0,.42-.28l6.29-15.56h38.91l6.31,15.57a.45.45,0,0,0,.42.28h14.8a.45.45,0,0,0,.42-.63ZM892.68,359l13.91-34.64L920.79,359Z"/><path class="cls-1" d="M1047.67,359.81l1.3-.63h0c9.48-4.68,14.92-13.31,14.92-23.68,0-16.2-12.63-27.09-31.43-27.09h-33.4a.46.46,0,0,0-.45.47v78.88a.45.45,0,0,0,.45.45h14.17a.45.45,0,0,0,.45-.45V362.68h18.44L1050,388a.45.45,0,0,0,.37.19h16.77a.45.45,0,0,0,.37-.71Zm-34-37.9h18.17c10,0,17.21,5.71,17.21,13.59s-7.24,13.57-17.21,13.57h-18.17Z"/><path class="cls-1" d="M509.57,247.34l-1.34-.35,1.19-.58c4.33-2.16,9.66-7.65,9.66-17.56,0-12.78-9.94-20.42-26.58-20.42H457a.45.45,0,0,0-.45.45v75a4.3,4.3,0,0,0,4.3,4.3h33.59c17.18,0,28.28-8.4,28.28-21.39C522.72,254.75,516.2,249.8,509.57,247.34Zm-38-26.24H490.2c13.45,0,14.9,7.13,14.9,10.19,0,6.88-5.71,11.16-14.9,11.16H471.62Zm21.57,54.49H471.6V254.86h22.09c8.95,0,14.29,3.67,14.29,9.83C508,269.72,504.11,275.6,493.19,275.6Z"/><path class="cls-1" d="M699.21,287.8V208.9a.45.45,0,0,0-.45-.45H684.59a.45.45,0,0,0-.45.45v53l-45.22-53.26a.45.45,0,0,0-.34-.16H627.85a.45.45,0,0,0-.45.45V287.8a.45.45,0,0,0,.45.45H642a.45.45,0,0,0,.45-.45V236.2l44.84,51.89a.45.45,0,0,0,.34.16h11.1A.45.45,0,0,0,699.21,287.8Z"/><path class="cls-1" d="M851,290.06c22.22,0,36-14.54,36-38V208.9a.45.45,0,0,0-.45-.45h-14a.45.45,0,0,0-.45.45v43.31c0,14.35-8.47,24-21.09,24-12.46,0-20.82-9.64-20.82-24V208.9a.45.45,0,0,0-.45-.45h-14a.45.45,0,0,0-.45.45v43.2C815.19,275.51,828.9,290.06,851,290.06Z"/><path class="cls-1" d="M1082.44,308.4a.45.45,0,0,0-.45.45v75a4.3,4.3,0,0,0,4.3,4.3H1130a3.12,3.12,0,0,0,2.5-1.27l7.14-9.55a1.6,1.6,0,0,0-1.28-2.55h-41.31V355.53h28.52a.45.45,0,0,0,.45-.45V342.6a.45.45,0,0,0-.45-.45h-28.52V321.77h39.4a.45.45,0,0,0,.45-.45V308.85a.45.45,0,0,0-.45-.45Z"/><path class="cls-1" d="M906.11,208.45a.45.45,0,0,0-.45.45v75a4.3,4.3,0,0,0,4.3,4.3H953.7a3.12,3.12,0,0,0,2.5-1.27l7.14-9.55a1.6,1.6,0,0,0-1.28-2.55H920.76V255.58h28.52a.45.45,0,0,0,.45-.45V242.66a.45.45,0,0,0-.45-.45H920.76V221.83h39.4a.45.45,0,0,0,.45-.45V208.9a.45.45,0,0,0-.45-.45Z"/><path class="cls-1" d="M805.28,277.85a1.42,1.42,0,0,1-.27.88l-7.29,9.95a3.12,3.12,0,0,1-2.5,1.27H756.11a41.92,41.92,0,0,1-29.4-12.27,41.66,41.66,0,0,1,29.71-70.9c23.46,0,41.84,18.27,41.84,41.59a40.48,40.48,0,0,1-10.62,26.77l-1.7,1.83,17.75-.7A1.49,1.49,0,0,1,805.28,277.85Zm-75.37-29.49c0,15.54,11.65,27.72,26.51,27.72S783,263.9,783,248.36s-11.65-27.73-26.53-27.73S729.91,232.81,729.91,248.36Z"/><path class="cls-1" d="M580.7,208.71a.45.45,0,0,0-.41-.27H566.13a.45.45,0,0,0-.41.27l-33.79,78.91a.45.45,0,0,0,.41.63h14.84a.45.45,0,0,0,.42-.28l6.26-15.48h38.71L598.84,288a.45.45,0,0,0,.42.28H614a.45.45,0,0,0,.41-.63Zm6.49,50.48h-28l13.84-34.47Z"/><path class="cls-2" d="M587.28,121.22c0,25.67-21.94,42.26-55.88,42.26H465a8.51,8.51,0,0,1-8.49-8.5V6.72a.89.89,0,0,1,.89-.89h70.13c32.88,0,52.52,15.08,52.52,40.34,0,19.57-10.53,30.42-19.08,34.68L558.66,82l2.65.69C574.4,87.52,587.28,97.3,587.28,121.22Zm-29.11-4.3c0-12.15-10.56-19.41-28.24-19.41H486.28v41H529C550.52,138.48,558.17,126.87,558.17,116.92ZM486.33,73H523c18.16,0,29.44-8.45,29.44-22.05,0-6.06-2.87-20.13-29.44-20.13H486.33Z"/><path class="cls-2" d="M769,163a.88.88,0,0,1-.79.49H735a.89.89,0,0,1-.73-.38l-35.34-50H662.54v49.51a.89.89,0,0,1-.89.89h-28a.89.89,0,0,1-.89-.89V6.75a.92.92,0,0,1,.89-.92h66c37.14,0,62.1,21.53,62.1,53.53,0,20.48-10.75,37.53-29.48,46.79h0l-2.58,1.25,39.22,54.67A.88.88,0,0,1,769,163ZM732.44,59.35c0-15.55-14.3-26.84-34-26.84h-35.9V86.16h35.9C718.14,86.16,732.44,74.88,732.44,59.35Z"/><path class="cls-2" d="M925.44,140.21a3.14,3.14,0,0,1-.63,1.89L910.7,161a6.17,6.17,0,0,1-4.94,2.5H819.32a8.51,8.51,0,0,1-8.49-8.5V6.72a.89.89,0,0,1,.89-.89H918.51a.89.89,0,0,1,.89.89V31.36a.89.89,0,0,1-.89.89H840.67V72.51H897a.9.9,0,0,1,.9.89V98a.9.9,0,0,1-.9.89H840.67V137h81.61A3.16,3.16,0,0,1,925.44,140.21Z"/><path class="cls-2" d="M1111,84c0,22.1-8.49,42.31-23.91,56.89s-36.79,22.62-60.18,22.62H976A8.41,8.41,0,0,1,967.6,155V6.72a.89.89,0,0,1,.89-.89h58.42C1075.63,5.83,1111,38.69,1111,84Zm-29.8,0c0-29.12-23.34-51.08-54.3-51.08H996.71V136.42h30.19C1057.86,136.42,1081.2,113.87,1081.2,84Z"/><rect class="cls-3" x="0.3" y="112.96" width="357.7" height="179.7" rx="19.17" ry="19.17"/><path class="cls-4" d="M380.74,0H113.66L3.21,110.45A11,11,0,0,0,0,118.2v63.16H65.2V117.94a3.2,3.2,0,0,1,3.2-3.2h35.55a3.2,3.2,0,0,1,3.2,3.2v63.42H170.3a3.2,3.2,0,0,1,3.2,3.2v35.55a3.2,3.2,0,0,1-3.2,3.2H107.15v63.42a3.2,3.2,0,0,1-3.2,3.2H68.4a3.2,3.2,0,0,1-3.2-3.2V223.3H0V377.09a11,11,0,0,0,11,11H269.87a11,11,0,0,0,7.76-3.21L388.07,274.4V7.33A7.33,7.33,0,0,0,380.74,0ZM333.11,289.91H290.5a2.74,2.74,0,0,1-2.2-1.11L248.46,235l-39.77,53.71a3,3,0,0,1-2.37,1.2H164.22a3,3,0,0,1-2.37-4.71l60.53-81.74a3,3,0,0,0,0-3.51l-60.67-82.49a1.72,1.72,0,0,1,1.38-2.73h44.62a3,3,0,0,1,2.38,1.2l38.36,52.15,38.42-52.24a2.74,2.74,0,0,1,2.21-1.12h44.73a1.72,1.72,0,0,1,1.38,2.73l-60.77,82.61a2.74,2.74,0,0,0,0,3.25l60.87,82.2A2.74,2.74,0,0,1,333.11,289.91Z"/></g></g></svg>