<?xml version="1.0" encoding="UTF-8" standalone="no"?>
<svg class="c-siteHeaderCel__logoImg" xmlns="http://www.w3.org/2000/svg" id="Calque_1" data-name="Calque 1" viewBox="0 0 78.94 99.75">
    <defs>
        <style>.cls-1{fill:#0af;}.cls-2{fill:#fff;}</style>
    </defs>
    <path class="cls-1" d="M78.79 39.39v-.97a39.38 39.38 0 1 0-39.4 40.37h39.38v-39c0-.17.02-.28.02-.4z"></path>
    <path class="cls-2" d="M27.33 42.15a31.51 31.51 0 0 0 6.51-.61c.44-.09.58-.26.58-.67v-9.76a.58.58 0 0 0-.58-.58h-3.72a.56.56 0 0 0-.55.58v6.68c-.7.06-1.42.09-2.24.09-1.42 0-3.25-.93-3.25-4.94v-3.63c0-3.81 1.45-4.94 3.81-4.94s4.65.17 6 .23H34c.26 0 .44-.06.44-.38v-3.07c0-.26-.2-.38-.49-.44a27.53 27.53 0 0 0-6.07-.67c-4.21 0-8.88 1.86-8.88 9.27v3.59c0 7.36 5 9.25 8.33 9.25zm31.08-.25H71.6a.58.58 0 0 0 .58-.58v-3.2a.54.54 0 0 0-.58-.52h-7.85c-.2 0-.32-.09-.32-.2a.61.61 0 0 1 .15-.32l8.19-12.55a1.44 1.44 0 0 0 .23-.76v-2.65c0-.55-.55-.81-1.16-.81H58.32a.56.56 0 0 0-.58.55v3.2a.56.56 0 0 0 .58.55h7.23c.2 0 .32.09.32.23a.47.47 0 0 1-.12.29l-8.1 12.26a2.1 2.1 0 0 0-.44 1.28v2.32c.01.64.53.91 1.2.91zm-36 18.09a.4.4 0 0 0 .4.4h2.63a.4.4 0 0 0 .4-.4V48.32h3.25a.4.4 0 0 0 .42-.38V45.9a.4.4 0 0 0-.42-.38h-9.95a.39.39 0 0 0-.4.38v2a.39.39 0 0 0 .4.38h3.27zm10.13.04l.72-3.29h4.11l.72 3.29a.43.43 0 0 0 .4.36h2.81a.31.31 0 0 0 .34-.32.87.87 0 0 1 0-.1l-3-12.44c-.46-1.93-1.93-2.23-3.31-2.23s-2.87.3-3.33 2.23l-3 12.44a.87.87 0 0 1 0 .1.31.31 0 0 0 .34.32h2.81a.43.43 0 0 0 .39-.36zM35 48.46c0-.2.1-.3.28-.3s.22.1.26.3L36.76 54h-3zm19.95 11.69a.52.52 0 0 0-.06-.22l-3-5.66a4 4 0 0 0 2.59-4V50c0-3.55-2.63-4.69-6-4.69a31.77 31.77 0 0 0-4.07.26c-.62.1-.9.28-.9 1v13.42a.4.4 0 0 0 .4.4h2.61a.4.4 0 0 0 .4-.4V54.9h1.64l2.69 5.07c.1.2.18.4.4.4h3.07c.15.02.23-.08.23-.22zM51 50.26c0 1.36-.66 1.91-2.77 1.91h-1.42v-3.89c.24 0 1.28-.06 1.56-.06 1.69 0 2.63.56 2.63 1.79zm9.12 10.13a.39.39 0 0 0 .38-.4V45.9a.37.37 0 0 0-.38-.38h-2.69a.35.35 0 0 0-.36.38v14.09a.37.37 0 0 0 .36.4zM72 45.59a23.35 23.35 0 0 0-3.87-.26c-2.59 0-4.89.64-4.89 4.29v10.37a.4.4 0 0 0 .4.4h2.61a.4.4 0 0 0 .4-.4v-5.86h5.2a.4.4 0 0 0 .4-.4v-1.9a.4.4 0 0 0-.4-.4h-5.2v-1.81c0-1 .34-1.36 1.28-1.36H72a.4.4 0 0 0 .4-.4v-1.87c.02-.26-.1-.36-.4-.4zM23.33 68.11a1.76 1.76 0 0 0 1.12-1.74v-.11c0-1.54-1.14-2-2.62-2a13.78 13.78 0 0 0-1.77.11c-.27 0-.39.12-.39.42v5.85a.17.17 0 0 0 .17.17H21a.17.17 0 0 0 .17-.17v-2.26h.72L23 70.59c0 .09.08.17.17.17h1.33c.1 0 .13 0 .13-.1a.23.23 0 0 0 0-.1zM23 66.37c0 .59-.29.83-1.2.83h-.62v-1.7h.68c.73 0 1.14.24 1.14.78zm6.12-2.04a10.15 10.15 0 0 0-1.68-.11c-1.12 0-2.13.28-2.13 1.86v2.89c0 1.59 1 1.87 2.12 1.87a10.29 10.29 0 0 0 1.69-.11c.12 0 .17-.07.17-.18v-.81a.17.17 0 0 0-.17-.17h-1.77c-.41 0-.56-.14-.56-.59v-.92H29a.17.17 0 0 0 .17-.17v-.83a.17.17 0 0 0-.17-.16h-2.21v-.79c0-.45.15-.59.56-.59h1.77a.17.17 0 0 0 .17-.17v-.85c0-.11-.05-.15-.17-.17zm-1.48-1.79c-.12 0-.16 0-.24.13l-.81 1a.14.14 0 0 0 0 .09s0 .06.08.06h.93c.11 0 .14 0 .21-.1l1.06-1.06a.1.1 0 0 0 0-.07s0-.06-.1-.06zm6.98 1.88a8.26 8.26 0 0 0-1.82-.2c-1.26 0-2.65.56-2.65 2.78v1.08a2.45 2.45 0 0 0 2.48 2.77 9.45 9.45 0 0 0 2-.18c.13 0 .17-.08.17-.2v-2.94a.17.17 0 0 0-.17-.17h-1.16a.17.17 0 0 0-.17.17v2h-.67c-.43 0-1-.28-1-1.48v-1.06c0-1.14.44-1.48 1.14-1.48s1.39.05 1.81.07c.08 0 .13 0 .13-.11v-.92c.06-.08 0-.12-.09-.13zm4.81 5.14h-1.5c-.41 0-.56-.14-.56-.59v-4.5a.18.18 0 0 0-.17-.17h-1.14a.17.17 0 0 0-.17.17v4.5c0 1.59 1 1.87 2.13 1.87a9 9 0 0 0 1.42-.11c.12 0 .17-.07.17-.18v-.81a.18.18 0 0 0-.18-.18zM44 64.33a10.15 10.15 0 0 0-1.68-.11c-1.12 0-2.13.28-2.13 1.86v2.89c0 1.59 1 1.87 2.12 1.87a10.29 10.29 0 0 0 1.69-.11c.12 0 .17-.07.17-.18v-.81a.17.17 0 0 0-.17-.17h-1.78c-.41 0-.56-.14-.56-.59v-.92h2.26a.17.17 0 0 0 .18-.16v-.83a.17.17 0 0 0-.17-.17h-2.26v-.79c0-.45.15-.59.56-.59H44a.17.17 0 0 0 .17-.17v-.85c0-.11-.06-.15-.17-.17zm6.78-.04H50a.41.41 0 0 0-.38.24l-1.33 2.48c0 .07-.06.11-.1.11s-.06 0-.1-.11l-1.33-2.48a.41.41 0 0 0-.38-.24h-.82a.29.29 0 0 0-.31.3v6.05c0 .1.08.12.15.12h1.1a.16.16 0 0 0 .14-.17v-3.7l.07.06.78 1.44a.28.28 0 0 0 .26.15h.7a.28.28 0 0 0 .26-.15l.78-1.44s0-.06.07-.06 0 0 0 .07v3.63a.16.16 0 0 0 .14.17h1.15c.07 0 .15 0 .15-.12v-6a.3.3 0 0 0-.22-.35zm5.22.04a10.14 10.14 0 0 0-1.68-.11c-1.12 0-2.13.28-2.13 1.86v2.89c0 1.59 1 1.87 2.12 1.87a10.28 10.28 0 0 0 1.69-.11c.12 0 .17-.07.17-.18v-.81a.17.17 0 0 0-.17-.17h-1.73c-.41 0-.56-.14-.56-.59v-.92H56a.17.17 0 0 0 .17-.17v-.83a.17.17 0 0 0-.17-.16h-2.29v-.79c0-.45.15-.59.56-.59H56a.17.17 0 0 0 .17-.17v-.85c.04-.11-.01-.15-.17-.17zm6.2-.04h-1a.17.17 0 0 0-.17.17v3.77l-.07-.07-2.06-3.59c-.1-.18-.19-.27-.37-.27h-.88a.33.33 0 0 0-.33.33v6a.17.17 0 0 0 .17.17h1a.17.17 0 0 0 .17-.17v-3.64l.08.07 2 3.43a.45.45 0 0 0 .45.27H62a.34.34 0 0 0 .34-.33v-6a.17.17 0 0 0-.14-.14zm5.22 0h-4.33a.17.17 0 0 0-.17.17v.9a.17.17 0 0 0 .17.17h1.42v5.07a.17.17 0 0 0 .17.17h1.14a.17.17 0 0 0 .17-.17v-5.08h1.41a.18.18 0 0 0 .18-.17v-.9a.18.18 0 0 0-.16-.16zm2.98-.45c.11 0 .14 0 .21-.1l1.06-1.06a.1.1 0 0 0 0-.07s0-.06-.1-.06h-1.1c-.12 0-.16 0-.24.13l-.81 1a.14.14 0 0 0 0 .09s0 .06.08.06zm1.55.49a10.15 10.15 0 0 0-1.68-.11c-1.12 0-2.13.28-2.13 1.86v2.89c0 1.59 1 1.87 2.12 1.87a10.29 10.29 0 0 0 1.69-.11c.12 0 .17-.07.17-.18v-.81a.17.17 0 0 0-.17-.17h-1.77c-.41 0-.56-.14-.56-.59v-.92h2.26a.17.17 0 0 0 .17-.17v-.83a.17.17 0 0 0-.17-.17h-2.26v-.79c0-.45.15-.59.56-.59h1.77a.17.17 0 0 0 .17-.17v-.84c0-.11-.05-.15-.17-.17zM37.38 41.9h4.07a.62.62 0 0 0 .58-.52l1-4.76h6l1 4.76a.62.62 0 0 0 .58.52h4.07a.45.45 0 0 0 .49-.47 1.23 1.23 0 0 1 0-.14l-4.33-18c-.67-2.79-2.79-3.22-4.79-3.22s-4.15.44-4.82 3.22l-4.33 18a1.23 1.23 0 0 1 0 .14.45.45 0 0 0 .48.47zm8.28-17.3c.06-.29.15-.44.41-.44s.32.15.38.44l1.77 8h-4.34z"></path>
    <path class="cls-1" d="M78.15 98.65a.72.72 0 0 1-.79-.63V86.24a.8.8 0 0 1 1.57 0v11.78a.72.72 0 0 1-.78.63zM31.07 84.71H32v3.52a1.19 1.19 0 0 0 .14.48.91.91 0 0 0 .36.35 1.75 1.75 0 0 0 1.35 0 .91.91 0 0 0 .36-.35 1.19 1.19 0 0 0 .14-.48v-3.52h.9v3.27a2.24 2.24 0 0 1-.15.86 1.66 1.66 0 0 1-.43.61 1.78 1.78 0 0 1-.66.37 3.1 3.1 0 0 1-1.72 0 1.78 1.78 0 0 1-.66-.37 1.66 1.66 0 0 1-.43-.61 2.25 2.25 0 0 1-.15-.86zm5.47 1.42h.77v.54a1.37 1.37 0 0 1 .49-.48 1.3 1.3 0 0 1 .67-.18 1.38 1.38 0 0 1 1 .32 1.21 1.21 0 0 1 .35.95v2.54H39V87.5a1 1 0 0 0-.19-.63.68.68 0 0 0-.54-.2.89.89 0 0 0-.37.08.81.81 0 0 0-.28.21 1 1 0 0 0-.18.31 1.12 1.12 0 0 0-.06.38v2.19h-.82zm5.11 2.06a1.42 1.42 0 0 0 .06.42 1 1 0 0 0 .18.35.88.88 0 0 0 .31.24 1 1 0 0 0 .44.09 1 1 0 0 0 .58-.15.91.91 0 0 0 .33-.46h.77a1.53 1.53 0 0 1-.6.94 1.64 1.64 0 0 1-.5.24 2 2 0 0 1-.58.08 2 2 0 0 1-.77-.14 1.6 1.6 0 0 1-.57-.4 1.7 1.7 0 0 1-.35-.62 2.5 2.5 0 0 1-.12-.79 2.23 2.23 0 0 1 .13-.75 1.92 1.92 0 0 1 .36-.62 1.68 1.68 0 0 1 1.31-.58 1.66 1.66 0 0 1 .78.18 1.73 1.73 0 0 1 .58.48 2 2 0 0 1 .33.69 2.12 2.12 0 0 1 .05.81zm1.91-.54a1.32 1.32 0 0 0-.08-.37 1 1 0 0 0-.19-.31.92.92 0 0 0-.29-.21.84.84 0 0 0-.38-.08 1 1 0 0 0-.39.08.89.89 0 0 0-.3.21 1 1 0 0 0-.2.31 1.09 1.09 0 0 0-.08.39zm4.15-1.52h.77v.52a2.13 2.13 0 0 1 .2-.25 1.11 1.11 0 0 1 .24-.19 1.22 1.22 0 0 1 .3-.13 1.5 1.5 0 0 1 .39 0 1.34 1.34 0 0 1 .63.15.85.85 0 0 1 .41.47 1.65 1.65 0 0 1 .48-.45 1.3 1.3 0 0 1 .68-.16 1.34 1.34 0 0 1 .91.29 1.22 1.22 0 0 1 .33 1v2.56h-.82v-2.68a.83.83 0 0 0-.08-.32.47.47 0 0 0-.2-.2.81.81 0 0 0-.37-.07.69.69 0 0 0-.58.23 1.23 1.23 0 0 0-.19.73v2.17H50v-2.35a1 1 0 0 0-.14-.58.59.59 0 0 0-.51-.2.75.75 0 0 0-.3.06.76.76 0 0 0-.26.19.93.93 0 0 0-.18.3 1.14 1.14 0 0 0-.07.41v2.2h-.82zm9.69 2.88a.43.43 0 0 0 0 .21.17.17 0 0 0 .15.06h.2v.57h-.51a.79.79 0 0 1-.42-.1.5.5 0 0 1-.21-.35 1.45 1.45 0 0 1-.6.34 2.35 2.35 0 0 1-.68.11 1.68 1.68 0 0 1-.48-.07 1.26 1.26 0 0 1-.4-.2 1 1 0 0 1-.28-.34 1 1 0 0 1-.1-.48 1.1 1.1 0 0 1 .13-.56.93.93 0 0 1 .33-.34 1.49 1.49 0 0 1 .46-.18l.51-.08.42-.06a2 2 0 0 0 .35-.06.55.55 0 0 0 .24-.13.37.37 0 0 0 .09-.27.42.42 0 0 0-.08-.26.51.51 0 0 0-.19-.15.8.8 0 0 0-.25-.07h-.26a1 1 0 0 0-.57.14.56.56 0 0 0-.25.44h-.82a1.23 1.23 0 0 1 .17-.59 1.19 1.19 0 0 1 .38-.38 1.56 1.56 0 0 1 .53-.2 3.12 3.12 0 0 1 .6-.06 2.52 2.52 0 0 1 .54.06 1.52 1.52 0 0 1 .48.19 1 1 0 0 1 .34.33.92.92 0 0 1 .13.5zm-.82-1a1 1 0 0 1-.46.15l-.54.07-.25.06a.75.75 0 0 0-.21.11.47.47 0 0 0-.15.18.61.61 0 0 0-.05.27.34.34 0 0 0 .08.23.57.57 0 0 0 .19.15.88.88 0 0 0 .24.08h.24a1.34 1.34 0 0 0 .29 0 1 1 0 0 0 .3-.12.78.78 0 0 0 .23-.22.55.55 0 0 0 .09-.33zm2.06-1.88h.77v.72a.83.83 0 0 1 .14-.29 1.36 1.36 0 0 1 .25-.26 1.26 1.26 0 0 1 .33-.19 1 1 0 0 1 .37-.07h.31v.79h-.36a.94.94 0 0 0-.39.08.9.9 0 0 0-.32.24 1.2 1.2 0 0 0-.21.4 1.72 1.72 0 0 0-.08.54v1.76h-.82zm6.24 5.07h-.82v-1.85a1.18 1.18 0 0 1-.24.26 1.28 1.28 0 0 1-.3.18 1.55 1.55 0 0 1-.34.1 2 2 0 0 1-.36 0 1.43 1.43 0 0 1-1.21-.59 1.88 1.88 0 0 1-.29-.62 2.71 2.71 0 0 1-.1-.72 2.65 2.65 0 0 1 .11-.77 1.84 1.84 0 0 1 .32-.63 1.51 1.51 0 0 1 .54-.42 1.77 1.77 0 0 1 .76-.15 1.6 1.6 0 0 1 .67.14 1 1 0 0 1 .48.46v-.5h.77zM62 87.98a2.11 2.11 0 0 0 .05.48 1.2 1.2 0 0 0 .18.42 1 1 0 0 0 .32.3.91.91 0 0 0 .47.11.89.89 0 0 0 .78-.36 1.6 1.6 0 0 0 .25-.94 1.57 1.57 0 0 0-.26-1 .91.91 0 0 0-.78-.35.87.87 0 0 0-.44.11 1 1 0 0 0-.32.29 1.33 1.33 0 0 0-.19.42 1.84 1.84 0 0 0-.06.52zm7.38 1.85h-.8v-.52a1.12 1.12 0 0 1-.45.45 1.22 1.22 0 0 1-.61.17 1.36 1.36 0 0 1-1.06-.36 1.59 1.59 0 0 1-.33-1.09v-2.35h.82v2.27a1 1 0 0 0 .19.69.68.68 0 0 0 .52.2 1 1 0 0 0 .43-.08.76.76 0 0 0 .28-.21.81.81 0 0 0 .15-.32 1.65 1.65 0 0 0 0-.4v-2.15h.82zm1.85-1.64a1.42 1.42 0 0 0 .06.42 1 1 0 0 0 .18.35.88.88 0 0 0 .31.24 1 1 0 0 0 .44.09 1 1 0 0 0 .58-.15.91.91 0 0 0 .33-.46h.77a1.53 1.53 0 0 1-.6.94 1.64 1.64 0 0 1-.5.24 2 2 0 0 1-.58.08 2 2 0 0 1-.77-.14 1.6 1.6 0 0 1-.57-.4 1.7 1.7 0 0 1-.35-.62 2.5 2.5 0 0 1-.12-.79 2.23 2.23 0 0 1 .13-.75 1.92 1.92 0 0 1 .36-.62 1.68 1.68 0 0 1 1.31-.58 1.66 1.66 0 0 1 .78.18 1.73 1.73 0 0 1 .58.48 2 2 0 0 1 .33.69 2.12 2.12 0 0 1 .05.81zm1.91-.54a1.32 1.32 0 0 0-.08-.37 1 1 0 0 0-.19-.31.92.92 0 0 0-.29-.21.84.84 0 0 0-.38-.08 1 1 0 0 0-.39.08.89.89 0 0 0-.3.21 1 1 0 0 0-.2.31 1.09 1.09 0 0 0-.08.39zM15.59 98.28h-.77v-.5a1 1 0 0 1-.48.46 1.62 1.62 0 0 1-.67.14 1.77 1.77 0 0 1-.76-.15 1.52 1.52 0 0 1-.54-.42 1.79 1.79 0 0 1-.32-.63 2.71 2.71 0 0 1-.11-.78 2.48 2.48 0 0 1 .14-.87 1.73 1.73 0 0 1 .36-.6 1.4 1.4 0 0 1 .52-.35 1.64 1.64 0 0 1 .59-.11 2 2 0 0 1 .35 0 1.55 1.55 0 0 1 .34.1 1.36 1.36 0 0 1 .3.18 1 1 0 0 1 .23.26v-1.85h.82zm-2.85-1.81a1.8 1.8 0 0 0 .06.47 1.27 1.27 0 0 0 .19.41.94.94 0 0 0 .32.29.93.93 0 0 0 .46.11.92.92 0 0 0 .47-.11 1 1 0 0 0 .32-.3 1.36 1.36 0 0 0 .19-.42 1.88 1.88 0 0 0 .06-.48 1.5 1.5 0 0 0-.28-1 .91.91 0 0 0-.75-.34.92.92 0 0 0-.48.12 1 1 0 0 0-.32.31 1.28 1.28 0 0 0-.18.43 2.24 2.24 0 0 0-.06.51zm7.35 1.81h-.8v-.52a1.12 1.12 0 0 1-.45.45 1.22 1.22 0 0 1-.61.17 1.36 1.36 0 0 1-1.06-.36 1.59 1.59 0 0 1-.34-1.12v-2.32h.82v2.27a1 1 0 0 0 .19.69.68.68 0 0 0 .52.2 1 1 0 0 0 .43-.08.76.76 0 0 0 .28-.21.81.81 0 0 0 .15-.32 1.65 1.65 0 0 0 0-.4v-2.15h.82zm6.99-.19a1.58 1.58 0 0 1-.47 1.25 2 2 0 0 1-1.35.41 2.84 2.84 0 0 1-.56-.06 1.68 1.68 0 0 1-.52-.19 1.24 1.24 0 0 1-.39-.36 1.09 1.09 0 0 1-.19-.54h.82a.65.65 0 0 0 .12.28.63.63 0 0 0 .2.17.78.78 0 0 0 .26.08h.3a1 1 0 0 0 .7-.23 1 1 0 0 0 .23-.7v-.57a1.24 1.24 0 0 1-.47.48 1.26 1.26 0 0 1-.64.17 1.69 1.69 0 0 1-.76-.15 1.44 1.44 0 0 1-.52-.42 1.76 1.76 0 0 1-.3-.62 2.92 2.92 0 0 1-.09-.75 2.19 2.19 0 0 1 .11-.71 1.8 1.8 0 0 1 .33-.59 1.58 1.58 0 0 1 .53-.41 1.61 1.61 0 0 1 .71-.15 1.43 1.43 0 0 1 .64.15 1 1 0 0 1 .45.46v-.51h.82zm-1.81-.45a.87.87 0 0 0 .77-.4 1.3 1.3 0 0 0 .17-.42 2.08 2.08 0 0 0 .05-.47 1.82 1.82 0 0 0-.06-.46 1.24 1.24 0 0 0-.18-.39.85.85 0 0 0-.31-.27 1 1 0 0 0-.45-.1.86.86 0 0 0-.46.11.92.92 0 0 0-.3.3 1.28 1.28 0 0 0-.16.42 2.18 2.18 0 0 0-.05.46 1.76 1.76 0 0 0 .06.45 1.24 1.24 0 0 0 .18.39.94.94 0 0 0 .3.28.85.85 0 0 0 .44.1zm2.99-3.06H29v.72a.83.83 0 0 1 .14-.29 1.36 1.36 0 0 1 .25-.26 1.26 1.26 0 0 1 .33-.19 1 1 0 0 1 .37-.07h.31v.79h-.36a.94.94 0 0 0-.39.08.9.9 0 0 0-.32.24 1.2 1.2 0 0 0-.21.4 1.72 1.72 0 0 0-.08.54v1.76h-.82zm4.45 3.8a2 2 0 0 1-.79-.15 1.68 1.68 0 0 1-.59-.4 1.73 1.73 0 0 1-.37-.62 2.37 2.37 0 0 1-.13-.79 2.34 2.34 0 0 1 .13-.78 1.73 1.73 0 0 1 .37-.62 1.68 1.68 0 0 1 .59-.41 2.21 2.21 0 0 1 1.58 0 1.69 1.69 0 0 1 .59.41 1.73 1.73 0 0 1 .37.62 2.35 2.35 0 0 1 .13.78 2.37 2.37 0 0 1-.13.79 1.73 1.73 0 0 1-.37.62 1.69 1.69 0 0 1-.59.4 2 2 0 0 1-.79.15zm0-.65a.94.94 0 0 0 .47-.11 1 1 0 0 0 .33-.3 1.31 1.31 0 0 0 .19-.42 1.88 1.88 0 0 0 0-.95 1.27 1.27 0 0 0-.19-.42 1 1 0 0 0-.33-.3 1 1 0 0 0-.95 0 1 1 0 0 0-.33.3 1.27 1.27 0 0 0-.19.42 1.88 1.88 0 0 0 0 .95 1.31 1.31 0 0 0 .19.42 1 1 0 0 0 .33.3.94.94 0 0 0 .48.12zm6.16.55h-.8v-.52a1.12 1.12 0 0 1-.45.45 1.22 1.22 0 0 1-.61.17 1.36 1.36 0 0 1-1.06-.36 1.59 1.59 0 0 1-.33-1.12v-2.32h.82v2.27a1 1 0 0 0 .19.69.68.68 0 0 0 .52.2 1 1 0 0 0 .43-.08.76.76 0 0 0 .28-.21.81.81 0 0 0 .15-.32 1.65 1.65 0 0 0 0-.4v-2.15h.82zm1.24-3.7h.77v.5a1 1 0 0 1 .48-.46 1.6 1.6 0 0 1 .67-.14 1.77 1.77 0 0 1 .76.15 1.51 1.51 0 0 1 .54.42 1.84 1.84 0 0 1 .32.63 2.65 2.65 0 0 1 .11.77 2.71 2.71 0 0 1-.1.72 1.88 1.88 0 0 1-.29.62 1.43 1.43 0 0 1-1.21.59 2 2 0 0 1-.36 0 1.55 1.55 0 0 1-.34-.1 1.35 1.35 0 0 1-.3-.18 1 1 0 0 1-.23-.26v1.85h-.82zM43 96.43a1.84 1.84 0 0 0-.1-.53 1.33 1.33 0 0 0-.19-.42 1 1 0 0 0-.32-.29.87.87 0 0 0-.44-.11.9.9 0 0 0-.78.36 1.58 1.58 0 0 0-.26 1 1.9 1.9 0 0 0 .07.52 1.17 1.17 0 0 0 .2.41 1 1 0 0 0 .33.27.93.93 0 0 0 .44.1.91.91 0 0 0 .47-.11 1 1 0 0 0 .32-.3 1.21 1.21 0 0 0 .18-.42 2.11 2.11 0 0 0 .08-.48zm2.46.21a1.42 1.42 0 0 0 .06.42 1 1 0 0 0 .18.35.88.88 0 0 0 .31.24 1 1 0 0 0 .44.09 1 1 0 0 0 .58-.15.91.91 0 0 0 .33-.46h.77a1.53 1.53 0 0 1-.6.94 1.64 1.64 0 0 1-.5.24 2 2 0 0 1-.58.08 2 2 0 0 1-.77-.14 1.6 1.6 0 0 1-.57-.4 1.7 1.7 0 0 1-.35-.62 2.5 2.5 0 0 1-.12-.79 2.23 2.23 0 0 1 .13-.75 1.92 1.92 0 0 1 .36-.62 1.68 1.68 0 0 1 1.31-.58 1.66 1.66 0 0 1 .78.18 1.73 1.73 0 0 1 .58.48 2 2 0 0 1 .33.69 2.12 2.12 0 0 1 .05.81zm1.91-.54a1.32 1.32 0 0 0-.08-.37 1 1 0 0 0-.19-.31.92.92 0 0 0-.29-.21.84.84 0 0 0-.38-.08 1 1 0 0 0-.39.08.89.89 0 0 0-.3.21 1 1 0 0 0-.2.31 1.09 1.09 0 0 0-.08.39zm4.26-2.94h3.68v.74h-2.78v1.34h2.58v.73h-2.58v1.5h2.84v.77h-3.74zm4.84 0h.95l2.33 3.74v-3.74h.85v5.12h-.95l-2.33-3.76v3.76h-.85zm10.03 5.12h-.57l-.14-.6a2.13 2.13 0 0 1-.72.57 2 2 0 0 1-.82.16 2.41 2.41 0 0 1-1-.21 2.26 2.26 0 0 1-.77-.58 2.58 2.58 0 0 1-.48-.85 3.27 3.27 0 0 1 0-2.07 2.58 2.58 0 0 1 .48-.85 2.31 2.31 0 0 1 .77-.58 2.38 2.38 0 0 1 1-.21 2.79 2.79 0 0 1 .79.11 2.12 2.12 0 0 1 .67.33 1.83 1.83 0 0 1 .49.55 1.92 1.92 0 0 1 .24.76h-.87a1.1 1.1 0 0 0-.45-.76 1.3 1.3 0 0 0-.4-.19 1.66 1.66 0 0 0-.47-.06 1.43 1.43 0 0 0-.71.16 1.39 1.39 0 0 0-.48.44 2 2 0 0 0-.28.63 2.91 2.91 0 0 0 0 1.43 2 2 0 0 0 .28.63 1.38 1.38 0 0 0 .48.44 1.43 1.43 0 0 0 .71.17 1.67 1.67 0 0 0 .61-.09 1.21 1.21 0 0 0 .45-.28 1.17 1.17 0 0 0 .28-.45 1.89 1.89 0 0 0 .1-.59h-1.37v-.68h2.18zm1.33-5.12h.9v5.12h-.9zm2.35 0h3.68v.74h-2.78v1.34h2.58v.73h-2.58v1.5h2.84v.77h-3.74z"></path>
</svg>