<?xml version="1.0" encoding="UTF-8"?>
<!-- Created with Inkscape (http://www.inkscape.org/) -->
<svg id="svg2" viewBox="0 0 270.66449 172.16812" version="1.1" xml:space="preserve" xmlns="http://www.w3.org/2000/svg" xmlns:cc="http://creativecommons.org/ns#" xmlns:dc="http://purl.org/dc/elements/1.1/" xmlns:rdf="http://www.w3.org/1999/02/22-rdf-syntax-ns#"><metadata id="metadata8"><rdf:RDF><cc:Work rdf:about=""><dc:format>image/svg+xml</dc:format><dc:type rdf:resource="http://purl.org/dc/dcmitype/StillImage"/></cc:Work></rdf:RDF></metadata><defs id="defs6"><clipPath id="clipPath16"><path id="path18" d="M 0,283.46 H 444.793 V 0 H 0 Z"/></clipPath></defs><g id="g10" transform="matrix(1.25,0,0,-1.25,-143.83087,252.40825)"><g id="g12"><g id="g14" clip-path="url(#clipPath16)"><g id="g20" transform="translate(271.6088,194.2935)"><path id="path22" d="m0 0-11.769-20.452h-12.361l-14.588-25.314h12.382l-9.365-16.261h30.413c7.774 9.502 12.443 21.645 12.443 34.879 0 9.874-2.609 19.132-7.155 27.148" fill="#264670"/></g><g id="g24" transform="translate(211.3757,132.2666)"><path id="path26" d="m0 0h0.03l-0.015 0.027 37.79 65.633h-31.969l-21.795-37.878-19.727 34.276c-4.557-8.022-7.173-17.292-7.173-27.179 0-13.235 4.668-25.377 12.443-34.879z" fill="#264670"/></g><g id="g28" transform="translate(122.9767,87.7491)"><path id="path30" d="m0 0c0-10.896 4.973-16.093 13.522-16.093 8.55 0 13.523 5.197 13.523 16.093 0 10.952-4.973 16.148-13.523 16.148-8.549 0-13.522-5.196-13.522-16.148m-3.912 0c0 13.243 6.594 19.613 17.434 19.613 10.841 0 17.434-6.37 17.434-19.613 0-13.131-6.593-19.557-17.434-19.557-10.84 0-17.434 6.426-17.434 19.557" fill="#264670"/></g><g id="g32" transform="translate(183.8268,105.7979)"><path id="path34" d="m0 0c0.167 0.447 0.727 1.229 1.788 1.229 1.062 0 1.9-0.838 1.9-1.9 0-0.335-0.112-0.67-0.168-0.838l-13.075-34.476c-0.279-0.783-1.062-1.286-1.788-1.286-0.727 0-1.509 0.503-1.788 1.286l-13.076 34.476c-0.056 0.168-0.168 0.503-0.168 0.838 0 1.062 0.839 1.9 1.9 1.9 1.062 0 1.621-0.782 1.788-1.229l11.344-30.062z" fill="#264670"/></g><g id="g36" transform="translate(196.8454,86.5196)"><path id="path38" d="m0 0v-16.093c0-1.005-0.838-1.899-1.9-1.899-1.061 0-1.9 0.894-1.9 1.899v34.7c0 1.006 0.839 1.901 1.9 1.901 1.062 0 1.9-0.895 1.9-1.901v-15.142h19.445v15.142c0 1.006 0.839 1.901 1.9 1.901 1.062 0 1.9-0.895 1.9-1.901v-34.7c0-1.005-0.838-1.899-1.9-1.899-1.061 0-1.9 0.894-1.9 1.899v16.093z" fill="#264670"/></g><g id="g40" transform="translate(226.404,71.1534)"><path id="path42" d="m0 0c0 1.845 1.006 2.683 2.626 2.683 1.621 0 2.627-0.838 2.627-2.683 0-1.844-1.006-2.626-2.627-2.626-1.62 0-2.626 0.782-2.626 2.626" fill="#8a8a89"/></g><g id="g44" transform="translate(246.9665,95.125)"><path id="path46" d="m0 0c4.973 0 7.711-2.626 8.604-3.855 0.28-0.391 0.392-0.671 0.392-1.062 0-0.95-0.726-1.62-1.62-1.62-0.56 0-0.95 0.223-1.342 0.67-0.838 0.95-2.346 2.626-6.034 2.626-5.141 0-7.879-3.296-7.879-10.169 0-6.986 2.738-10.226 7.879-10.226 3.24 0 5.196 1.452 6.481 2.403 0.392 0.279 0.671 0.391 1.062 0.391 0.895 0 1.621-0.726 1.621-1.621 0-0.503-0.168-0.893-0.726-1.396-1.23-1.006-3.913-3.018-8.438-3.018-7.208 0-11.511 4.303-11.511 13.467s4.303 13.41 11.511 13.41" fill="#8a8a89"/></g><g id="g48" transform="translate(279.9333,81.7149)"><path id="path50" d="m0 0c0 7.04-2.961 10.169-8.102 10.169s-8.102-3.129-8.102-10.169c0-7.152 2.961-10.226 8.102-10.226s8.102 3.074 8.102 10.226m3.633 0c0-9.164-4.471-13.467-11.735-13.467-7.209 0-11.734 4.303-11.734 13.467s4.525 13.41 11.734 13.41c7.264 0 11.735-4.246 11.735-13.41" fill="#8a8a89"/></g><g id="g52" transform="translate(327.5963,85.2344)"><path id="path54" d="m0 0v-14.919c0-1.006-0.782-1.788-1.788-1.788s-1.788 0.782-1.788 1.788v14.193c0 4.414-1.565 7.432-6.986 7.432-4.804 0-6.984-2.57-6.984-6.706v-14.919c0-1.006-0.782-1.788-1.788-1.788s-1.788 0.782-1.788 1.788v14.193c0 4.414-1.397 7.432-6.873 7.432-5.196 0-6.873-3.13-6.873-7.823v-13.802c0-1.006-0.782-1.788-1.788-1.788s-1.788 0.782-1.788 1.788v22.687c0 1.005 0.782 1.788 1.788 1.788s1.788-0.783 1.788-1.788v-1.789c0.95 2.068 3.632 3.912 7.264 3.912 4.583 0 7.543-1.676 8.884-3.912 1.398 2.179 3.857 3.912 8.158 3.912 8.606 0 10.562-5.141 10.562-9.891" fill="#8a8a89"/></g></g></g></g></svg>