<?xml version="1.0" encoding="UTF-8" standalone="no"?>
<!-- Created with Inkscape (http://www.inkscape.org/) -->
<svg xmlns:dc="http://purl.org/dc/elements/1.1/" xmlns:cc="http://creativecommons.org/ns#" xmlns:rdf="http://www.w3.org/1999/02/22-rdf-syntax-ns#" xmlns:svg="http://www.w3.org/2000/svg" xmlns="http://www.w3.org/2000/svg" xmlns:sodipodi="http://sodipodi.sourceforge.net/DTD/sodipodi-0.dtd" xmlns:inkscape="http://www.inkscape.org/namespaces/inkscape" id="svg2" version="1.1" inkscape:version="0.91 r13725" xml:space="preserve" width="800" height="110" viewBox="0 0 800 110" sodipodi:docname="Logo Boulanger 2004.svg"><metadata id="metadata8"><rdf:RDF><cc:Work rdf:about=""><dc:format>image/svg+xml</dc:format><dc:type rdf:resource="http://purl.org/dc/dcmitype/StillImage"/><dc:title/></cc:Work></rdf:RDF></metadata><defs id="defs6"/><sodipodi:namedview pagecolor="#ffffff" bordercolor="#666666" borderopacity="1" objecttolerance="10" gridtolerance="10" guidetolerance="10" inkscape:pageopacity="0" inkscape:pageshadow="2" inkscape:window-width="1440" inkscape:window-height="788" id="namedview4" showgrid="false" inkscape:zoom="0.53181207" inkscape:cx="371.81192" inkscape:cy="381.13757" inkscape:window-x="0" inkscape:window-y="1" inkscape:window-maximized="1" inkscape:current-layer="g10"/><g id="g10" inkscape:groupmode="layer" inkscape:label="Logo Boulanger" transform="matrix(0,1.25,1.25,0,0,-634.02502)"><g id="g4536" transform="matrix(2.9613985,0,0,2.9632511,134.11639,-65.375246)"><g id="g4529"><g id="g244" transform="translate(132.051,46.049)"><path d="m 0,0 -0.003,0 0,-9.7 -6.057,0 c 1.561,-2.909 4.633,-4.887 8.166,-4.887 l 7.155,0 c 5.117,0 9.264,4.149 9.264,9.264 l 0,5.323 -0.003,0 C 18.449,5.053 14.332,9.129 9.261,9.129 4.19,9.129 0.073,5.053 0,0" style="fill:#ffffff;fill-opacity:1;fill-rule:nonzero;stroke:none" id="path246" inkscape:connector-curvature="0"/></g><path inkscape:connector-curvature="0" id="path254" style="fill:#f15a22;fill-opacity:1;fill-rule:nonzero;stroke:none" d="m 136.956,45.913 0,-9.526 4.356,0 c 2.405,0 4.355,1.952 4.355,4.355 l 0,5.171 c 0,2.406 -1.95,4.356 -4.355,4.356 -2.406,0 -4.356,-1.95 -4.356,-4.356"/><g id="g248" transform="translate(150.573,46.049)"><path d="m 0,0 0.003,0 0,-5.323 c 0,-5.115 -4.148,-9.264 -9.264,-9.264 l -7.155,0 c -3.533,0 -6.604,1.978 -8.167,4.887 l 6.058,0 0,9.7 0.003,0 c 0.073,5.053 4.189,9.129 9.261,9.129 C -4.19,9.129 -0.073,5.053 0,0 m -24.584,2.683 0,-12.372 c 0,-7.896 6.401,-14.298 14.297,-14.298 7.896,0 14.298,6.402 14.298,14.298 l 0,12.372 c 0,7.896 -6.402,14.297 -14.298,14.297 -7.896,0 -14.297,-6.401 -14.297,-14.297" style="fill:#f15a22;fill-opacity:1;fill-rule:nonzero;stroke:none" id="path250" inkscape:connector-curvature="0"/></g></g><g style="fill:#f15a22;fill-opacity:1" id="g4449"><path inkscape:connector-curvature="0" style="fill:#f15a22;fill-opacity:1;fill-rule:nonzero;stroke:none" d="m 135.10625,213.56718 c 0,-4.66 3.52413,-7.675 7.75313,-7.675 4.66,0 7.71406,3.24938 7.71406,7.90938 l 0,9.47657 -3.99375,0 0,-9.31875 c 0,-1.959 -0.78307,-3.1722 -2.11407,-3.6422 l 0,13 -2.54687,0 c -4.188,0 -6.8125,-3.01468 -6.8125,-7.20468 l 0,-2.54532 z m 3.72031,0 0,2.54532 c 0,2.115 0.97913,3.01563 2.15313,3.01563 l 0,-8.81095 c -1.37,0.509 -2.15313,1.566 -2.15313,3.25 z" id="path4412"/><path inkscape:connector-curvature="0" style="fill:#f15a22;fill-opacity:1;fill-rule:nonzero;stroke:none" d="m 135.10625,192.61875 c 0,-4.269 2.66325,-7.75313 6.93125,-7.75313 4.307,0 6.97032,3.48413 6.97032,7.75313 l 0,6.5 1.41093,0 c 0.821,0 1.36875,-0.58893 1.36875,-1.41093 l 0,-8.22188 3.91719,0 0,8.02656 c 0,3.798 -1.87894,5.87344 -5.28594,5.87344 l -15.3125,0 0,-10.76719 z m 4.07344,0.50781 0,5.99219 5.75469,0 0,-5.99219 c 0,-1.997 -0.86088,-3.64062 -2.89688,-3.64062 -1.997,0 -2.85781,1.64362 -2.85781,3.64062 z" id="path4408"/><path inkscape:connector-curvature="0" style="fill:#f15a22;fill-opacity:1;fill-rule:nonzero;stroke:none" d="m 135.10625,99.346872 c 0,-4.268 3.48513,-7.75312 7.75313,-7.75312 4.268,0 7.71406,3.48512 7.71406,7.75312 l 0,4.346878 c 0,4.268 -3.44606,7.75312 -7.71406,7.75312 -4.268,0 -7.75313,-3.48512 -7.75313,-7.75312 l 0,-4.346878 z m 4.07344,0.312504 0,3.721874 c 0,1.995 1.68269,3.64062 3.67969,3.64062 1.997,0 3.64218,-1.64562 3.64218,-3.64062 l 0,-3.721874 c 0,-1.996 -1.64518,-3.640624 -3.64218,-3.640624 -1.997,0 -3.67969,1.644624 -3.67969,3.640624 z" id="path4396"/><path inkscape:connector-curvature="0" style="fill:#f15a22;fill-opacity:1;fill-rule:nonzero;stroke:none" d="m 130.01562,70.879687 13.23594,0 c 4.034,0 7.32188,3.407875 7.32188,7.596875 l 0,3.328126 c 0,4.268 -3.44606,7.753128 -7.71406,7.753128 -4.268,0 -7.75313,-3.485128 -7.75313,-7.753128 l 0,-6.65625 -5.09063,0 0,-4.268751 z m 9.16407,4.268751 0,6.343746 c 0,1.997 1.68269,3.640632 3.67969,3.640632 1.997,0 3.60312,-1.682632 3.60312,-3.640632 l 0,-2.701559 c 0,-2.349 -1.60612,-3.642187 -3.60312,-3.642187 l -3.67969,0 z" id="path258"/><path inkscape:connector-curvature="0" style="fill:#f15a22;fill-opacity:1;fill-rule:nonzero;stroke:none" d="m 135.10156,150.65625 c 0,-4.264 3.48231,-7.74687 7.74531,-7.74687 4.265,0 7.70938,3.48287 7.70938,7.74687 l 0,10.20625 -15.45469,0 0,-10.20625 z m 4.06875,0.31406 0,5.62813 7.27656,0 0,-5.62813 c 0,-1.996 -1.604,-3.63906 -3.6,-3.63906 -1.994,0 -3.67656,1.64306 -3.67656,3.63906 z" id="path262"/><path inkscape:connector-curvature="0" style="fill:#f15a22;fill-opacity:1;fill-rule:nonzero;stroke:none" d="m 135.107,238.041 4.073,0 0,-4.073 c 0,-1.996 1.643,-3.64 3.641,-3.64 l 7.753,0 0,-4.269 -7.753,0 c -4.659,0 -7.714,3.093 -7.714,7.753 l 0,4.229 z" id="path4416"/><path inkscape:connector-curvature="0" style="fill:#f15a22;fill-opacity:1;fill-rule:nonzero;stroke:none" d="m 142.821,182.279 7.753,0 0,-4.267 -7.753,0 c -1.998,0 -3.641,-1.645 -3.641,-3.643 l 0,-6.068 11.394,0 0,-4.269 -15.467,0 0,10.494 c 0,4.269 3.446,7.753 7.714,7.753" id="path4406"/><path inkscape:connector-curvature="0" style="fill:#f15a22;fill-opacity:1;fill-rule:nonzero;stroke:none" d="m 130.015,140.425 20.558,0 0,-4.2686 -20.558,0 0,4.2686 z" id="path4404"/><path inkscape:connector-curvature="0" style="fill:#f15a22;fill-opacity:1;fill-rule:nonzero;stroke:none" d="M 150.574,140.425 Z" id="path4402"/><path inkscape:connector-curvature="0" style="fill:#f15a22;fill-opacity:1;fill-rule:nonzero;stroke:none" d="m 142.86,114.033 -7.753,0 0,4.267 7.753,0 c 1.997,0 3.642,1.644 3.642,3.642 l 0,6.069 -11.395,0 0,4.269 15.467,0 0,-10.494 c 0,-4.661 -3.054,-7.753 -7.714,-7.753" id="path4400"/></g></g></g></svg>