<svg xmlns="http://www.w3.org/2000/svg" viewBox="0 0 576.5 132.3"><style>.st0{fill:#d20073}.st1{fill:#003883}.st4{fill:#006fb7}</style><path d="M154.7.4H165c9.2 0 12.7.9 16.2 4 2.8 2.4 4.5 6.3 4.5 9.8 0 4.6-1.8 7.7-5.8 10.1 3.6 1.3 5.6 2.8 7.2 5.5 1.2 2 1.8 4.7 1.8 7.5 0 6.2-3.4 11.4-9 13.9-2.7 1.2-6.5 1.7-11.1 1.7h-14V.4zm12.9 20.4c5.8 0 8.4-1.8 8.4-5.7 0-3.6-2.8-5.7-7.6-5.7h-4v11.4h3.2zm1.7 23c6.8-.2 9.9-2.3 9.9-6.9 0-4.4-3.5-7-9.6-7h-5.1v13.9h4.8zm47.4-31.6c11.6 0 20.9 9.3 20.9 21s-9.3 21-21 21c-11.5 0-21-9.4-21-21 .1-11.5 9.5-21 21.1-21zm0 33.4c6.4 0 11.4-5.4 11.4-12.2 0-6.8-5.2-12.5-11.5-12.5s-11.5 5.6-11.5 12.3c0 7 5.1 12.4 11.6 12.4zm62.8-32.1v39.4h-8.7V49c-3.1 3.9-5.8 5.2-10.3 5.2-4.3 0-8.3-1.5-11.4-4.3-3.5-3.2-4.9-6.9-4.9-13.3V13.5h9.5v20.1c0 7.9 2.8 11.9 8 11.9 5.4 0 8.2-4 8.2-11.9V13.5h9.6zm10.3 0h8.7V17c2.8-3.6 8.6-4.3 12.4-4.3.2 0-.3 0 0 0v8.7c-5.8.2-11.6 3.2-11.6 9.5V53h-9.5V13.5zm106.6 0h8.7V17c2.8-3.6 8.6-4.3 12.4-4.3.2 0-.3 0 0 0v8.7c-5.8.2-11.6 3.2-11.6 9.5V53h-9.5V13.5zm-67.1 32.1c2.4 0 4.3-1.7 4.3-3.9 0-2.4-1.4-3.5-6.7-5.2-4.5-1.4-5.4-1.9-7.4-3.7-2.4-2.1-3.6-4.9-3.6-8.4 0-6.8 5.8-12.2 13.2-12.2 7 0 12.6 5.2 12.9 12.1h-9.2c-.4-2.2-1.7-3.4-3.7-3.4-2.1 0-3.7 1.5-3.7 3.3 0 1.8 1 2.8 4.1 3.7l2.7.8c3.5 1.1 5.6 2.1 7.3 3.5 2.5 2.1 3.7 4.8 3.7 8.4 0 7.6-6.5 13.6-14.4 13.6-5.4 0-10.4-2.8-12.5-7.3-.9-1.9-1.3-3.1-1.6-6.4h9.6c.7 3.6 2.2 5.1 5 5.1zm39-33.4c11.6 0 20.9 9.3 20.9 21s-9.3 21-21 21c-11.5 0-21-9.4-21-21 .1-11.5 9.5-21 21.1-21zm0 33.4c6.4 0 11.4-5.4 11.4-12.2 0-6.8-5.2-12.5-11.5-12.5s-11.5 5.6-11.5 12.3c0 7 5.1 12.4 11.6 12.4zm91 7.3h-8.7v-4.8c-3 3.5-8.9 6.1-13.8 6.1-11 0-19.2-8.9-19.2-21.1 0-11.8 8.5-20.8 19.7-20.8 5 0 10.3 2.5 13.3 6.3v-5l8.7-.1v39.4zm-20.5-32c-6.6 0-11.7 5.4-11.7 12.5 0 6.9 5.1 12.2 11.7 12.2 6.7 0 11.6-5.3 11.6-12.5 0-7.1-5-12.2-11.6-12.2zm31.3-7.4h8.7v3.3c2.4-3.1 5.8-4.6 10.5-4.6s8.8 2.2 11.4 6.2c2.9-4.2 7.1-6.2 12.7-6.2 10.2 0 16 6.4 16 17.7v23h-9.5V31.1c0-6.8-2.5-10.3-7.5-10.3-5.5 0-8 3.8-8 12.4v19.6h-9.5V31.1c0-6.6-2.8-10.3-7.9-10.3-5.3 0-7.5 3.6-7.5 12.4v19.6H470V13.5zm106.5 39.4h-8.7v-4.8c-3 3.5-8.9 6.1-13.8 6.1-11 0-19.2-8.9-19.2-21.1 0-11.8 8.5-20.8 19.7-20.8 5 0 10.3 2.5 13.3 6.3v-5l8.7-.1v39.4zm-20.6-32c-6.6 0-11.7 5.4-11.7 12.5 0 6.9 5.1 12.2 11.7 12.2 6.7 0 11.6-5.3 11.6-12.5 0-7.1-4.9-12.2-11.6-12.2z" class="st0"/><path d="M179.9 90.6c4-2.4 5.8-5.5 5.8-10.1 0-3.5-1.7-7.3-4.5-9.8-3.5-3.2-7-4-16.2-4h-10.3v52.5h14c4.7 0 8.4-.6 11.1-1.7 5.6-2.4 9-7.7 9-13.9 0-2.8-.6-5.5-1.8-7.5-1.5-2.7-3.6-4.3-7.1-5.5zm-15.5-14.8h4c4.8 0 7.6 2.1 7.6 5.7 0 3.9-2.7 5.7-8.4 5.7h-3.2V75.8zm4.9 34.3h-4.9V96.3h5.1c6.1 0 9.6 2.6 9.6 7 .1 4.6-3 6.7-9.8 6.8zm57.8-25.3c-2.9-3.8-8.3-6.3-13.3-6.3-11.2 0-19.7 9-19.7 20.8 0 12.2 8.1 21.1 19.2 21.1 4.9 0 10.8-2.6 13.8-6.1v4.8h8.7V79.8l-8.7.1v4.9zM215.3 112c-6.5 0-11.7-5.4-11.7-12.2 0-7.1 5-12.5 11.7-12.5 6.6 0 11.6 5.1 11.6 12.2 0 7.2-4.9 12.5-11.6 12.5zm49.3-33.5c-4.2 0-7.4 1.4-10.8 4.7v-3.4H245v39.4h9.5v-18.7c0-4.7.2-6.5 1-8.5 1-2.8 4.1-4.8 7.2-4.8 5.4 0 8 4.1 8 12.6v19.4h9.5V97.9c0-5.6-.5-8.3-2.1-11.4-2.4-4.8-7.8-8-13.5-8zm53.8 6.3c-3.2-4.3-7.3-6.3-12.8-6.3-10.9 0-20 9.4-20 20.7 0 11.8 8.9 21.2 19.9 21.2 4.8 0 9.1-1.7 12.1-5v16.9h9.5V79.8h-8.7v5zm-11.7 27.1c-6.6 0-11.6-5.3-11.6-12.4 0-6.9 5-12.3 11.5-12.3 6.3 0 11.4 5.5 11.4 12.4.1 6.8-5 12.3-11.3 12.3zm54.8-11.9c0 7.9-2.8 11.9-8.2 11.9-5.3 0-8-4-8-11.9V79.9h-9.5V103c0 6.5 1.3 10.1 4.9 13.3 3.1 2.8 7.1 4.3 11.4 4.3 4.5 0 7.2-1.3 10.3-5.2v3.9h8.7V79.8h-9.5V100zm57.3-1c0-11.4-9.2-20.8-20.4-20.8-11.4 0-20.7 9.5-20.7 21.4 0 11.7 9.2 20.9 20.8 20.9 7.8 0 15.1-4.8 18.2-11.8h-11.1c-1.9 2.1-4.3 3.2-7.4 3.2-4.8 0-9.3-3.5-10.5-8.1h30.6c.4-2.3.5-3.4.5-4.8zm-31.5-2.9c1.3-5.5 5.8-9.2 11.2-9.2 5.4 0 9.7 3.6 11 9.2h-22.2z" class="st1"/><path d="M118.7 18.8v1.3c0 5.3-2.2 10.2-5.8 13.8l-8.7 8.8-25 25v30.9c0 11.2 8.9 20.4 19.8 20.4s19.8-9.2 19.8-20.4V20.8c0-.7 0-1.3-.1-2z" class="st0"/><path d="M51.5 39.9l-46 46c-7.1 8-7.1 20.1.3 27.5l73.4-73.5H51.5z" fill="#23bbea"/><path d="M5.9 113.3c7.4 7.4 19.5 7.4 27.4.3l.8-.8 45.1-45.1V40L5.9 113.3z" fill="#009de0"/><path d="M104.3 42.7l8.7-8.8c-3.7 3.7-8.9 6-14.6 6H79.3v27.8l25-25z" class="st4"/><path d="M96.8.5h1.9-78.2C9.3.3.1 9.2.1 20.1.1 31 9.3 39.9 20.5 39.9h31L84.2 7.1c3.2-3.6 7.6-6 12.6-6.6z" class="st0"/><path d="M79.3 20.2v-1.9c0-.2 0-.3.1-.5v-.1c.1-.6.2-1.2.3-1.7.7-3.3 2.2-6.4 4.4-8.9L51.5 39.9h27.8V20.2z" class="st4"/><path d="M118.7 18.8c-.1-.9-.2-1.9-.4-2.8C116.5 7 108.6.3 99.1.3h-2.2c-5 .6-9.4 3-12.5 6.6-2.2 2.5-3.7 5.5-4.4 8.9-.1.6-.2 1.1-.3 1.7v.1c0 .2 0 .3-.1.5v21.6h19.1c11.2 0 20.4-8.9 20.4-19.8-.3-.2-.3-.6-.4-1.1z" class="st1"/></svg>