<?xml version="1.0" encoding="UTF-8" standalone="no"?>
<svg xmlns:dc="http://purl.org/dc/elements/1.1/" xmlns:cc="http://creativecommons.org/ns#" xmlns:rdf="http://www.w3.org/1999/02/22-rdf-syntax-ns#" xmlns:svg="http://www.w3.org/2000/svg" xmlns="http://www.w3.org/2000/svg" viewBox="0 0 500 500" xml:space="preserve" version="1.1"><metadata id="metadata839"><rdf:RDF><cc:Work rdf:about=""><dc:format>image/svg+xml</dc:format><dc:type rdf:resource="http://purl.org/dc/dcmitype/StillImage"/><dc:title/></cc:Work></rdf:RDF></metadata><defs id="defs837"/><g transform="matrix(1.3333333,0,0,-1.3333333,0,1122.52)" id="g841"><path id="path22355" style="fill:#ed1c24;fill-opacity:1;fill-rule:nonzero;stroke:none;stroke-width:7.12886" d="M 375.00001,841.89002 H 0 V 466.89001 h 375.00001 z"/><g id="g22586"><path id="path22367" style="opacity:1;fill:#ffffff;fill-opacity:1;fill-rule:nonzero;stroke:none;stroke-width:7.12887;stop-opacity:1" d="m 92.062233,647.72453 h -11.80541 v -25.4073 h 12.161854 c 8.048493,0 11.448963,5.33953 11.448963,13.2597 0,6.43737 -1.96757,12.1476 -11.805407,12.1476 m -11.80541,41.99618 v -22.05673 h 12.575328 c 7.613639,0 10.265579,5.46785 10.265579,12.03354 0,6.55856 -3.18661,10.02319 -10.622022,10.02319 z M 96.239751,604.86576 H 52.561159 v 102.34207 h 47.692151 c 15.58371,0 28.23745,-6.31618 28.23745,-25.10788 0,-9.25328 -4.01355,-18.94141 -15.89738,-22.61278 10.4937,-2.64481 19.7541,-10.72182 19.7541,-23.05477 0,-18.64913 -11.57016,-31.56664 -36.107729,-31.56664"/><path id="path22371" style="opacity:1;fill:#ffffff;fill-opacity:1;fill-rule:nonzero;stroke:none;stroke-width:7.12887;stop-opacity:1" d="m 326.86585,684.15662 h -25.30749 v -78.88809 h -28.28023 v 78.88809 h -25.30749 v 21.37236 h 78.89521 z"/><path id="path22375" style="opacity:1;fill:#ffffff;fill-opacity:1;fill-rule:nonzero;stroke:none;stroke-width:7.12887;stop-opacity:1" d="m 204.10028,706.03869 v -68.53697 c 0,-9.24614 -2.85155,-14.81379 -12.68939,-14.81379 -9.84497,0 -12.68939,5.56765 -12.68939,14.81379 v 68.53697 h -28.1234 v -69.26411 c 0,-13.4308 1.25469,-15.89026 5.31101,-21.37236 6.56569,-8.23384 18.31407,-11.36342 35.50178,-11.36342 17.18058,0 28.93609,3.12958 35.49465,11.36342 4.06345,5.4821 5.31814,7.94156 5.31814,21.37236 v 69.26411 z"/></g></g></svg>