<?xml version="1.0" encoding="utf-8"?>
<!-- Generator: Adobe Illustrator 18.1.0, SVG Export Plug-In . SVG Version: 6.00 Build 0)  -->
<svg version="1.1" id="Logo" xmlns="http://www.w3.org/2000/svg" xmlns:xlink="http://www.w3.org/1999/xlink" x="0px" y="0px"
	 viewBox="0 0 558 188.3" enable-background="new 0 0 558 188.3" xml:space="preserve">
<g>
	<rect x="-97.7" y="-94.2" fill="none" width="753.3" height="376.7"/>
	<g>
		<linearGradient id="SVGID_1_" gradientUnits="userSpaceOnUse" x1="278.9993" y1="85.6089" x2="278.9993" y2="0">
			<stop  offset="0" style="stop-color:#01afef;stop-opacity:0"/>
			<stop  offset="1" style="stop-color:#01afef"/>
		</linearGradient>
		<path fill-rule="evenodd" clip-rule="evenodd" fill="url(#SVGID_1_)" d="M558,85.6C485.3,32.5,387.1,0,279,0
			C170.9,0,72.7,32.5,0,85.6H558z"/>
		<g>
			<path fill="#01afef" d="M238.3,100.8c-5.2,0-7.9,4.2-8.6,9.4c-0.8,5.7-3.8,25.5-4.4,30.5c-0.4,3-0.6,6.2-3.5,7.5
				c-2.9,1.3-6.5-0.7-9.5-3.3c-3-2.6-47.9-40.8-47.9-40.8c-2.6-2.3-5.8-3.3-8.9-3.3c-6.8,0-13.3,4.2-13.3,14.5V179
				c0,5,3.5,8.1,7.7,8.1c4.6,0,7.6-3.1,8.3-7.5c0,0,4.9-30.4,5.5-33.7c0.7-3.9,1.3-7,5.1-8.2c3.4-1.1,6.7,0.9,11.5,5.2
				c4.8,4.2,45.2,40.7,45.2,40.7c3.1,2.6,5.3,3.7,9.7,3.7c4,0,11.2-1.6,11.2-13.8v-63.5C246.4,104,242.8,100.8,238.3,100.8z"/>
			<path fill="#01afef" d="M527.4,168.6c-35.2,7.6-75.5-0.5-75.5-25.4c0-18.8,17.5-26.5,31.2-27.6c14.4-1.2,25.7,1.9,31.5,7.9
				c3.6,3.8,2.6,8.9-4.5,9.3c-6.6,0.4-18.9,0.8-29.1,1.2c-5.8,0.2-8.9,3.3-8.9,7.5c0,3.3,2.5,7.1,9.2,7.1c9.6,0,33.9,0.2,46,0.2
				c8,0,11.9-4.4,11.9-13.6c0-14.5-13.2-36.6-51.7-36.6c-34.9,0-60.2,17.4-60.2,45.8c0,40.3,59.4,52.6,102.8,37.7
				c4.1-1.4,7.9-4.4,6.7-9C535.7,169.1,532.4,167.6,527.4,168.6z"/>
			<path fill="#01afef" d="M118.9,168.6c-35.2,7.6-75.5-0.5-75.5-25.4c0-18.8,17.5-26.5,31.2-27.6c14.4-1.2,25.7,1.9,31.5,7.9
				c3.6,3.8,2.6,8.9-4.5,9.3c-6.6,0.4-18.9,0.8-29.1,1.2c-5.8,0.2-8.9,3.3-8.9,7.5c0,3.3,2.5,7.1,9.2,7.1c9.6,0,33.9,0.2,46,0.2
				c8,0,11.9-4.4,11.9-13.6c0-14.5-13.2-36.6-51.7-36.6c-34.9,0-60.2,17.4-60.2,45.8c0,40.3,59.4,52.6,102.8,37.7
				c4.1-1.4,7.9-4.4,6.7-9C127.3,169.1,123.9,167.6,118.9,168.6z"/>
			<g>
				<path fill="#01afef" d="M391.6,129.9c0.8,22,2.8,40.2,3.4,46.6c0.7,8.2,5,10.6,9.3,10.6c4.1,0,8.5-2.1,9.2-10.5
					c0.6-7,2.7-28.8,3.7-50.3c0.1-1.1-0.7-1.6-1.6-1.4l-22.9,3.7C392.1,128.7,391.6,129.2,391.6,129.9z"/>
				<path fill="#01afef" d="M404.4,98.7c-10.5,0-13.6,8.2-13.5,13.3c0,0.9,0.1,3.5,0.3,6.8c0,0.7,0.7,1.4,1.6,1.3l23.9-3.9
					c0.8-0.2,1.1-0.7,1.2-1.3c0.1-1.1,0.1-2.3,0.1-2.8C418.1,107.2,415,98.7,404.4,98.7z"/>
			</g>
			<path fill="#01afef" d="M369.3,133.8c-8,0-32.6,0.2-48.3,0.2c-7.6,0-9.5,4.1-9.5,7.5c0,3,2,6.8,9.2,7.2c10.9,0.6,24.7,1.2,31,1.5
				c8.6,0.4,8.7,4.9,5.8,8.6c-5.8,7.6-20,12.6-34.7,12.6c-19.2,0-40.4-10.9-40.4-28.3c0-16.3,18.1-34.2,71.9-26.6
				c4.7,0.7,9.4-0.2,10.6-4.6c1.2-4.7-1.8-7.6-7.9-9.3c-12.2-3.2-23.3-4-33.9-4c-36.2,0-65.3,17.3-65.3,45.2
				c0,29.8,28.9,44.4,65,44.4c40.3,0,59.9-21.9,59.9-41.1C382.6,137.5,377.6,133.8,369.3,133.8z"/>
		</g>
	</g>
</g>
</svg>
