<svg xmlns="http://www.w3.org/2000/svg" viewBox="0 0 312 52" class="logo header__logo" aria-label="ETS Global"><title>ETS Global</title><path d="M64.52,37.3l-.1.07A53.49,53.49,0,0,1,42.35,47.51c-13,2.86-25.2,1.16-31.71-4.43a13.42,13.42,0,0,1-4.88-9.33c-.79-9.49,6.33-19.3,19-26.24l.13-.07-.15-.36-.12,0C9.72,13.13-.76,24.33,0,35A16.1,16.1,0,0,0,5.68,46.11c6.92,6,19.2,7.91,32.82,5A53.65,53.65,0,0,0,64.68,37.72l.12-.12Z" class="logo__path logo__path--blue"></path><path d="M74.43,11.55c-2.6-5.78-8.29-9.71-16-11.06-12.51-2.2-27.52,3.19-35,11.91l-.1.11.24.32.12-.1C28.6,8.57,36,5.41,43.4,4.27,54.38,2.6,63.6,5.36,68,11.66c4.33,6.11,3.1,17.92-2.57,24.76l-.11.13.29.33.11-.1C74.4,28.56,78.55,20.78,74.43,11.55Z" class="logo__path logo__path--red"></path><path d="M28.31,28.2H20L19.14,33H28.4l-.73,3.9H13.77l3.9-20.67H31l-.77,3.89H21.56l-.79,4.24h8.28Z" class="logo__path logo__path--blue"></path><path d="M36.73,20.1H31.66l.76-3.92H50a5.77,5.77,0,0,0-2.86,1.74A4.4,4.4,0,0,0,46,20.1H41.33L38.2,36.85H33.6Z" class="logo__path logo__path--blue"></path><path d="M46.11,31.79a11.13,11.13,0,0,0,5.55,1.5c1.68,0,3.37-.71,3.37-2.33,0-1.1-1-1.84-3-2.76-2.4-1-4.88-2.67-4.88-5.64,0-4.27,4-6.75,8.59-6.75a11.6,11.6,0,0,1,5.49,1.13l-1.51,3.81a9.37,9.37,0,0,0-4.38-1c-2.21,0-3.28,1-3.28,2,0,1.29,1.56,2,3.34,2.85C58.16,25.81,60,27.46,60,30.19c0,4.73-4.14,7-9,7a12.14,12.14,0,0,1-6.6-1.72Z" class="logo__path logo__path--blue"></path><path d="M73.33,41.71a2.85,2.85,0,1,1,.83-2A2.71,2.71,0,0,1,73.33,41.71ZM69.59,38a2.47,2.47,0,0,0,0,3.47,2.44,2.44,0,0,0,3.46,0,2.47,2.47,0,0,0,0-3.47,2.44,2.44,0,0,0-3.46,0Zm1.68.16a2.52,2.52,0,0,1,.85.11.78.78,0,0,1,.48.79.69.69,0,0,1-.3.62,1.18,1.18,0,0,1-.46.15.76.76,0,0,1,.54.3.91.91,0,0,1,.17.49v.23a1.93,1.93,0,0,0,0,.23.51.51,0,0,0,0,.16l0,0h-.51v0a.08.08,0,0,0,0,0v-.34a.78.78,0,0,0-.29-.72,1.29,1.29,0,0,0-.61-.1h-.44v1.23h-.55V38.13Zm.59.49a1.4,1.4,0,0,0-.67-.12h-.47v1.14h.5a1.62,1.62,0,0,0,.52-.07.49.49,0,0,0,.33-.49A.48.48,0,0,0,71.86,38.62Z" class="logo__path logo__path--blue"></path><path d="M129.41,26.21a15.12,15.12,0,0,1-4.92.88,7.39,7.39,0,0,1-5.35-1.87,6.7,6.7,0,0,1-1.85-4.9A9.73,9.73,0,0,1,120.53,13a10.52,10.52,0,0,1,6.91-2.38,9.89,9.89,0,0,1,4.08.72l-.86,2.35a8.34,8.34,0,0,0-3.43-.67,6.9,6.9,0,0,0-4.52,1.61,7.42,7.42,0,0,0-2.37,5.54c0,2.91,1.58,4.59,4.61,4.59a5.52,5.52,0,0,0,2.08-.36l.77-4.06H125l.43-2.26H131Z" class="logo__path logo__path--blue"></path><path d="M135.17,10.75H138l-2.59,13.73h6.34l-.46,2.45h-9.15Z" class="logo__path logo__path--blue"></path><path d="M157.66,17.18a11,11,0,0,1-2.93,7.71,8,8,0,0,1-5.76,2.3c-4.2,0-6.39-3.07-6.39-6.67a11.11,11.11,0,0,1,3-7.78,8.07,8.07,0,0,1,5.67-2.26C155.62,10.48,157.66,13.48,157.66,17.18Zm-9.89-2.95a9.35,9.35,0,0,0-2.21,6.14c0,2.45,1.08,4.47,3.82,4.47a4.46,4.46,0,0,0,3.14-1.37,9.78,9.78,0,0,0,2.16-6.19c0-2.14-.74-4.45-3.72-4.45A4.42,4.42,0,0,0,147.77,14.23Z" class="logo__path logo__path--blue"></path><path d="M161.3,11a20,20,0,0,1,3.89-.36,6.44,6.44,0,0,1,3.89,1,3.14,3.14,0,0,1,1.56,2.76,4.2,4.2,0,0,1-3.36,3.93v.08a3.53,3.53,0,0,1,2.59,3.55,4.56,4.56,0,0,1-2.09,3.82,10,10,0,0,1-5.71,1.32,21.7,21.7,0,0,1-3.75-.27Zm.14,13.78c.44,0,.94.07,1.47.07,2.09,0,4-.87,4-3,0-1.73-1.46-2.37-3.17-2.37h-1.32Zm1.42-7.4h1.3c2.09,0,3.6-1,3.6-2.64,0-1.34-1-1.92-2.57-1.92a7.33,7.33,0,0,0-1.49.12Z" class="logo__path logo__path--blue"></path><path d="M175.24,22.32,173,26.93h-3l8.11-16.18h3.51l2,16.18h-2.93l-.46-4.61Zm4.93-2.16-.46-4c-.07-.86-.17-2.11-.24-3.07h-.05c-.43,1-.86,2.11-1.32,3.07l-2,4Z" class="logo__path logo__path--blue"></path><path d="M188.47,10.75h2.78l-2.59,13.73H195l-.46,2.45H185.4Z" class="logo__path logo__path--blue"></path><path d="M118.13,38.77l-1.29,2.56h-1l4.19-8.1h1.16l1.13,8.1h-1l-.34-2.56Zm2.71-.79-.31-2.34c0-.42-.11-1-.15-1.49h0c-.22.48-.42,1-.66,1.47L118.49,38Z" class="logo__path logo__path--blue"></path><path d="M125.27,40.32a2.64,2.64,0,0,0,1.24.36,1,1,0,0,0,1.11-1c0-.46-.21-.73-.82-1.07a1.73,1.73,0,0,1-1-1.49,1.91,1.91,0,0,1,2.1-1.79,2.45,2.45,0,0,1,1.21.29l-.27.76a2.12,2.12,0,0,0-1-.26.94.94,0,0,0-1,.87c0,.42.28.68.81,1a1.8,1.8,0,0,1,1.08,1.53,2,2,0,0,1-2.21,1.91,2.79,2.79,0,0,1-1.45-.4Z" class="logo__path logo__path--blue"></path><path d="M135.23,35.52l-.78,4.11c-.14.65-.21,1.21-.27,1.7h-.88l.14-1.1h0a2.55,2.55,0,0,1-2,1.23c-.74,0-1.53-.36-1.53-1.68a4.88,4.88,0,0,1,.11-1l.63-3.27h1L131,38.76a4.65,4.65,0,0,0-.09.85c0,.6.24,1,.92,1a2.41,2.41,0,0,0,1.89-2.13l.56-3Z" class="logo__path logo__path--blue"></path><path d="M138.32,32.8l-.77,3.77h0a2.44,2.44,0,0,1,2-1.19c1.27,0,1.75,1.06,1.75,2.09,0,1.79-1.28,4-3.61,4-1,0-1.79-.42-1.79-1.49a4.53,4.53,0,0,1,.11-.91l1.25-6.26Zm-1.26,6.28a2.69,2.69,0,0,0-.07.75c0,.55.32.85.94.85,1.5,0,2.41-1.79,2.41-3.09,0-.72-.31-1.38-1.1-1.38s-1.76.89-2.05,2.26Z" class="logo__path logo__path--blue"></path><path d="M142,40.32a2.72,2.72,0,0,0,1.25.36,1,1,0,0,0,1.1-1c0-.46-.2-.73-.81-1.07a1.73,1.73,0,0,1-1-1.49,1.91,1.91,0,0,1,2.1-1.79,2.48,2.48,0,0,1,1.21.29l-.28.76a2.05,2.05,0,0,0-1-.26.93.93,0,0,0-1,.87c0,.42.28.68.81,1a1.82,1.82,0,0,1,1.08,1.53,2,2,0,0,1-2.21,1.91,2.83,2.83,0,0,1-1.46-.4Z" class="logo__path logo__path--blue"></path><path d="M146.29,41.33l1.11-5.81h1l-1.11,5.81Zm1.29-7.42a.68.68,0,0,1,.65-.68.59.59,0,0,1,.6.63.65.65,0,0,1-.68.67A.57.57,0,0,1,147.58,33.91Z" class="logo__path logo__path--blue"></path><path d="M155.09,32.8l-1.28,6.68c-.1.61-.2,1.28-.24,1.85h-.91l.16-1.16h0a2.47,2.47,0,0,1-2.08,1.29c-1.13,0-1.74-.93-1.74-2.11a3.82,3.82,0,0,1,3.58-4,2.67,2.67,0,0,1,1,.21l.51-2.79Zm-1.67,3.63a1.59,1.59,0,0,0-.95-.25c-1.39,0-2.47,1.48-2.47,3,0,.7.24,1.43,1.09,1.43s1.69-.87,1.94-2.18Z" class="logo__path logo__path--blue"></path><path d="M155.1,41.33l1.11-5.81h1l-1.11,5.81Zm1.29-7.42a.67.67,0,0,1,.65-.68.59.59,0,0,1,.6.63.65.65,0,0,1-.68.67A.57.57,0,0,1,156.39,33.91Z" class="logo__path logo__path--blue"></path><path d="M161.58,41.33c0-.35.06-.91.13-1.5h0a2.52,2.52,0,0,1-2.26,1.63,1.72,1.72,0,0,1-1.67-1.92,4.06,4.06,0,0,1,4-4.16,5.88,5.88,0,0,1,1.57.22l-.59,3a13,13,0,0,0-.25,2.69Zm.65-5.07a2.13,2.13,0,0,0-.69-.08,3.09,3.09,0,0,0-2.75,3.18c0,.65.23,1.28,1,1.28s1.81-1.08,2.1-2.63Z" class="logo__path logo__path--blue"></path><path d="M163.88,41.33l.71-3.75c.13-.76.23-1.52.29-2.06h.87c0,.4-.09.81-.15,1.26h0a2.1,2.1,0,0,1,1.78-1.4,2.58,2.58,0,0,1,.29,0l-.19,1-.28,0c-.86,0-1.63,1-1.89,2.4l-.47,2.56Z" class="logo__path logo__path--blue"></path><path d="M169.08,35.52l.57,3.12c.13.67.2,1.1.27,1.53h0c.16-.37.32-.78.62-1.42l1.49-3.23h1.06l-2.19,4.41a11.12,11.12,0,0,1-2,3,3.69,3.69,0,0,1-1.68,1l-.25-.86a3.66,3.66,0,0,0,1.06-.56,4.14,4.14,0,0,0,1.13-1.34.34.34,0,0,0,0-.26L168,35.52Z" class="logo__path logo__path--blue"></path><path d="M180.62,37.8a3.48,3.48,0,0,1-3.23,3.66,2.22,2.22,0,0,1-2.27-2.39,3.48,3.48,0,0,1,3.22-3.69A2.23,2.23,0,0,1,180.62,37.8ZM176.15,39c0,.95.53,1.64,1.37,1.64,1.18,0,2.07-1.52,2.07-2.87a1.44,1.44,0,0,0-1.36-1.62C177,36.18,176.15,37.7,176.15,39Z" class="logo__path logo__path--blue"></path><path d="M181.31,41.33l1-5h-.78l.16-.78h.77l.06-.32a3.48,3.48,0,0,1,1-2,2,2,0,0,1,1.37-.52,1.59,1.59,0,0,1,.81.16l-.22.79a1.44,1.44,0,0,0-.59-.11c-.79,0-1.17.77-1.34,1.73l-.05.28h1.29l-.15.78h-1.29l-.95,5Z" class="logo__path logo__path--blue"></path><path d="M191.21,37.52h-2.94l-.55,2.95H191l-.16.86h-4.31l1.53-8.1h4.13l-.17.86h-3.12l-.49,2.59h2.94Z" class="logo__path logo__path--blue"></path><path d="M198.15,32.8l-1.27,6.68a15.64,15.64,0,0,0-.24,1.85h-.91l.15-1.16h0a2.48,2.48,0,0,1-2.09,1.29c-1.13,0-1.74-.93-1.74-2.11a3.83,3.83,0,0,1,3.59-4,2.62,2.62,0,0,1,1,.21l.52-2.79Zm-1.67,3.63a1.59,1.59,0,0,0-.95-.25c-1.39,0-2.47,1.48-2.47,3,0,.7.24,1.43,1.09,1.43s1.69-.87,1.95-2.18Z" class="logo__path logo__path--blue"></path><path d="M203.83,35.52,203,39.63c-.13.65-.2,1.21-.26,1.7h-.89l.15-1.1h0a2.55,2.55,0,0,1-2,1.23c-.74,0-1.54-.36-1.54-1.68a5.73,5.73,0,0,1,.11-1l.64-3.27h1l-.61,3.24a4.65,4.65,0,0,0-.09.85c0,.6.24,1,.92,1s1.64-.85,1.89-2.13l.56-3Z" class="logo__path logo__path--blue"></path><path d="M208.35,41.09a3.88,3.88,0,0,1-1.68.36,2.1,2.1,0,0,1-2.24-2.25A3.68,3.68,0,0,1,208,35.4a2.89,2.89,0,0,1,1.21.25l-.29.79a2.22,2.22,0,0,0-1-.22,2.71,2.71,0,0,0-2.46,2.86,1.37,1.37,0,0,0,1.44,1.55,2.91,2.91,0,0,0,1.34-.33Z" class="logo__path logo__path--blue"></path><path d="M213,41.33c0-.35.06-.91.13-1.5h0a2.51,2.51,0,0,1-2.26,1.63,1.72,1.72,0,0,1-1.67-1.92,4.06,4.06,0,0,1,4-4.16,6,6,0,0,1,1.58.22l-.6,3a12.88,12.88,0,0,0-.24,2.69Zm.65-5.07a2.09,2.09,0,0,0-.69-.08,3.08,3.08,0,0,0-2.74,3.18c0,.65.22,1.28,1,1.28s1.82-1.08,2.1-2.63Z" class="logo__path logo__path--blue"></path><path d="M217.84,34.12l-.27,1.4H219l-.16.78h-1.39l-.53,2.82a4.3,4.3,0,0,0-.12.92.49.49,0,0,0,.55.56,2.17,2.17,0,0,0,.47,0l0,.78a2.35,2.35,0,0,1-.76.11,1.08,1.08,0,0,1-1.23-1.13,5.64,5.64,0,0,1,.13-1.08l.57-2.94h-.83l.14-.78h.83l.21-1.09Z" class="logo__path logo__path--blue"></path><path d="M218.91,41.33,220,35.52h1l-1.11,5.81Zm1.29-7.42a.68.68,0,0,1,.65-.68.59.59,0,0,1,.6.63.65.65,0,0,1-.68.67A.57.57,0,0,1,220.2,33.91Z" class="logo__path logo__path--blue"></path><path d="M227.12,37.8a3.49,3.49,0,0,1-3.23,3.66,2.21,2.21,0,0,1-2.27-2.39,3.48,3.48,0,0,1,3.22-3.69A2.23,2.23,0,0,1,227.12,37.8ZM222.65,39c0,.95.53,1.64,1.37,1.64,1.18,0,2.07-1.52,2.07-2.87a1.44,1.44,0,0,0-1.36-1.62C223.48,36.18,222.65,37.7,222.65,39Z" class="logo__path logo__path--blue"></path><path d="M227.69,41.33l.77-4.12c.13-.65.21-1.21.27-1.69h.89l-.14,1.14h0a2.56,2.56,0,0,1,2.15-1.28A1.43,1.43,0,0,1,233.13,37a5.44,5.44,0,0,1-.11.94l-.65,3.4h-1L232,38a4.32,4.32,0,0,0,.07-.74c0-.58-.22-1-.91-1a2.57,2.57,0,0,0-2,2.29l-.53,2.83Z" class="logo__path logo__path--blue"></path><path d="M237.82,41.33c0-.35.06-.91.13-1.5h0a2.52,2.52,0,0,1-2.26,1.63A1.72,1.72,0,0,1,234,39.54a4.06,4.06,0,0,1,4-4.16,5.88,5.88,0,0,1,1.57.22l-.59,3a12.24,12.24,0,0,0-.24,2.69Zm.65-5.07a2.13,2.13,0,0,0-.69-.08A3.08,3.08,0,0,0,235,39.36c0,.65.22,1.28,1,1.28s1.81-1.08,2.1-2.63Z" class="logo__path logo__path--blue"></path><path d="M240.12,41.33l1.62-8.53h1l-1.62,8.53Z" class="logo__path logo__path--blue"></path><path d="M247.61,34.1h-2.36l.16-.87h5.74l-.17.87h-2.37l-1.37,7.23h-1Z" class="logo__path logo__path--blue"></path><path d="M253.85,41a4.14,4.14,0,0,1-1.92.46,2.1,2.1,0,0,1-2.21-2.34c0-1.76,1.3-3.74,3.17-3.74a1.5,1.5,0,0,1,1.7,1.5c0,1.53-1.71,1.92-3.86,1.89a2.39,2.39,0,0,0,.12,1.1,1.31,1.31,0,0,0,1.3.78,3.29,3.29,0,0,0,1.56-.39Zm-1.1-4.83c-.95,0-1.66.92-1.91,1.83,1.57,0,2.79-.19,2.79-1.1C253.63,36.43,253.27,36.17,252.75,36.17Z" class="logo__path logo__path--blue"></path><path d="M255,40.32a2.64,2.64,0,0,0,1.24.36,1,1,0,0,0,1.11-1c0-.46-.21-.73-.82-1.07a1.73,1.73,0,0,1-1-1.49,1.91,1.91,0,0,1,2.1-1.79,2.42,2.42,0,0,1,1.21.29l-.28.76a2,2,0,0,0-1-.26.94.94,0,0,0-1,.87c0,.42.28.68.81,1a1.8,1.8,0,0,1,1.08,1.53,2,2,0,0,1-2.21,1.91,2.79,2.79,0,0,1-1.45-.4Z" class="logo__path logo__path--blue"></path><path d="M261.9,34.12l-.27,1.4H263l-.16.78h-1.39L261,39.12a4.3,4.3,0,0,0-.12.92.49.49,0,0,0,.55.56,2.17,2.17,0,0,0,.47,0l-.05.78a2.35,2.35,0,0,1-.76.11,1.08,1.08,0,0,1-1.23-1.13,5.64,5.64,0,0,1,.13-1.08l.57-2.94h-.83l.14-.78h.83l.21-1.09Z" class="logo__path logo__path--blue"></path><path d="M263,41.33l1.11-5.81h1L264,41.33Zm1.29-7.42a.68.68,0,0,1,.65-.68.59.59,0,0,1,.6.63.65.65,0,0,1-.68.67A.57.57,0,0,1,264.26,33.91Z" class="logo__path logo__path--blue"></path><path d="M265.61,41.33l.76-4.12c.14-.65.22-1.21.28-1.69h.89l-.15,1.14h0a2.55,2.55,0,0,1,2.15-1.28A1.43,1.43,0,0,1,271,37a4.61,4.61,0,0,1-.11.94l-.64,3.4h-1l.64-3.37a4.32,4.32,0,0,0,.07-.74c0-.58-.23-1-.91-1a2.56,2.56,0,0,0-2,2.29l-.53,2.83Z" class="logo__path logo__path--blue"></path><path d="M271.94,42.65a3.09,3.09,0,0,0,1.54.38c1,0,1.75-.49,2.09-2.06l.19-.88h0a2.33,2.33,0,0,1-2,1.24,1.84,1.84,0,0,1-1.78-2,3.8,3.8,0,0,1,3.69-3.93,4.91,4.91,0,0,1,1.87.41l-.9,4.8a4.33,4.33,0,0,1-1.17,2.61,3.15,3.15,0,0,1-2,.63,3.37,3.37,0,0,1-1.73-.4Zm4.47-6.27a2.6,2.6,0,0,0-1-.19c-1.46,0-2.46,1.52-2.46,3,0,.65.22,1.39,1.11,1.39s1.72-1.08,1.94-2.2Z" class="logo__path logo__path--blue"></path><path d="M280.28,40.08a3.07,3.07,0,0,0,1.72.51,1.59,1.59,0,0,0,1.75-1.51c0-.6-.34-1.06-1.19-1.51-1-.57-1.61-1.21-1.61-2.08a2.5,2.5,0,0,1,2.74-2.37,3,3,0,0,1,1.65.42l-.35.81a2.85,2.85,0,0,0-1.41-.38,1.45,1.45,0,0,0-1.6,1.32c0,.66.41,1,1.26,1.5A2.38,2.38,0,0,1,284.78,39c0,1.39-1.09,2.5-2.92,2.5a3.36,3.36,0,0,1-1.94-.57Z" class="logo__path logo__path--blue"></path><path d="M289.89,41a4.14,4.14,0,0,1-1.92.46,2.11,2.11,0,0,1-2.21-2.34c0-1.76,1.3-3.74,3.17-3.74a1.51,1.51,0,0,1,1.71,1.5c0,1.53-1.72,1.92-3.87,1.89a2.39,2.39,0,0,0,.12,1.1,1.31,1.31,0,0,0,1.3.78,3.29,3.29,0,0,0,1.56-.39Zm-1.1-4.83c-1,0-1.66.92-1.91,1.83,1.57,0,2.8-.19,2.8-1.1C289.68,36.43,289.32,36.17,288.79,36.17Z" class="logo__path logo__path--blue"></path><path d="M291,41.33l.71-3.75c.13-.76.23-1.52.29-2.06h.87c0,.4-.09.81-.15,1.26h0a2.11,2.11,0,0,1,1.78-1.4,2.58,2.58,0,0,1,.29,0l-.19,1-.28,0c-.86,0-1.63,1-1.89,2.4L292,41.33Z" class="logo__path logo__path--blue"></path><path d="M296.25,35.52l.51,3.31c.08.66.16,1.1.18,1.43h0c.13-.31.29-.7.63-1.36l1.76-3.38h1.09l-3.23,5.81h-1l-1-5.81Z" class="logo__path logo__path--blue"></path><path d="M300.3,41.33l1.11-5.81h1l-1.11,5.81Zm1.29-7.42a.67.67,0,0,1,.65-.68.59.59,0,0,1,.6.63.65.65,0,0,1-.68.67A.57.57,0,0,1,301.59,33.91Z" class="logo__path logo__path--blue"></path><path d="M306.92,41.09a3.88,3.88,0,0,1-1.68.36A2.09,2.09,0,0,1,303,39.2a3.67,3.67,0,0,1,3.55-3.8,2.89,2.89,0,0,1,1.21.25l-.29.79a2.22,2.22,0,0,0-1-.22A2.71,2.71,0,0,0,304,39.08a1.37,1.37,0,0,0,1.44,1.55,2.91,2.91,0,0,0,1.34-.33Z" class="logo__path logo__path--blue"></path><path d="M312,41a4.14,4.14,0,0,1-1.92.46,2.1,2.1,0,0,1-2.21-2.34c0-1.76,1.3-3.74,3.17-3.74a1.51,1.51,0,0,1,1.7,1.5c0,1.53-1.71,1.92-3.86,1.89a2.39,2.39,0,0,0,.12,1.1,1.3,1.3,0,0,0,1.3.78,3.25,3.25,0,0,0,1.55-.39Zm-1.11-4.83c-.94,0-1.65.92-1.9,1.83,1.57,0,2.79-.19,2.79-1.1C311.74,36.43,311.38,36.17,310.85,36.17Z" class="logo__path logo__path--blue"></path><polygon points="105.87 8.41 104.53 8.41 98.52 44.65 99.87 44.65 105.87 8.41" class="logo__path logo__path--blue"></polygon></svg>