<?xml version="1.0" encoding="UTF-8" standalone="no"?>
<svg
   xmlns:dc="http://purl.org/dc/elements/1.1/"
   xmlns:cc="http://creativecommons.org/ns#"
   xmlns:rdf="http://www.w3.org/1999/02/22-rdf-syntax-ns#"
   xmlns:svg="http://www.w3.org/2000/svg"
   xmlns="http://www.w3.org/2000/svg"
   id="svg3355"
   version="1.1"
   xml:space="preserve"
   width="454.93066"
   height="150.776"
   viewBox="0 0 454.93066 150.776">
  <g
     id="g3363"
     transform="matrix(1.3333333,0,0,-1.3333333,-180.53426,805.80838)">
    <g
       id="g3371"
       transform="translate(468.8057,565.3643)">
      <path
         d="m 0,0 -13.646,13.645 -25.35,0 0,17.55 -21.451,0 0,-79.94 21.451,0 0,40.947 17.545,0 0,-40.947 21.451,0 L 0,0 Z m -68.241,13.645 -33.146,0 L -115.036,0 l 0,-35.094 13.649,-13.651 33.146,0 0,21.445 -25.35,0 0,19.502 25.35,0 0,21.443 z m -54.594,0 -17.545,0 0,17.55 -21.451,0 0,-66.289 13.649,-13.651 25.347,0 0,21.445 -17.545,0 0,19.502 17.545,0 0,21.443 z m -46.795,17.55 -21.445,0 0,-9.752 21.445,0 0,9.752 z m 0,-17.55 -21.445,0 0,-62.389 21.445,0 0,62.389 z m -29.244,0 -21.447,0 0,-40.945 -7.797,0 0,40.945 -21.448,0 0,-40.945 -7.796,0 0,40.945 -21.451,0 0,-62.39 66.293,0 13.646,13.651 0,48.739 z m -87.738,0 -17.546,0 0,17.55 -21.447,0 0,-66.289 13.648,-13.651 25.345,0 0,21.445 -17.546,0 0,19.502 17.546,0 0,21.443 z M 7.793,3.9 l 0,-58.491 -29.244,-19.499 -19.496,0 0,9.752 -13.648,-9.752 -17.545,0 0,9.752 -9.746,-9.752 -31.197,0 -9.752,9.752 -1.952,-9.752 -27.292,0 -11.161,9.752 -0.625,-9.752 -30.935,0 -1.094,9.752 -8.374,-9.752 -47.25,0 -9.75,3.9 0,-3.9 -25.344,0 -29.247,17.552 -17.546,17.539 0,77.991 37.047,0 17.545,-17.549 79.939,0 0,17.549 66.29,0 0,-17.549 17.548,0 0,-9.746 9.752,9.746 19.493,0 17.55,17.549 37.044,0 0,-17.549 21.448,0 L 7.793,3.9 Z"
         style="fill:#6441a5;fill-opacity:1;fill-rule:evenodd;stroke:none"
         id="path3373" />
    </g>
  </g>
</svg>